<svg viewBox="-10 -10 340 340" xmlns:svg="http://www.w3.org/2000/svg" xmlns="http://www.w3.org/2000/svg"><rect x="0" y="0" height="320" width="320" stroke="#fff" fill="none"></rect><rect x="0" y="0" height="40" width="40" stroke="none" fill="#ccc" style="opacity: 1;"></rect><rect x="0" y="40" height="40" width="40" stroke="none" fill="#ccc" style="opacity: 0;"></rect><rect x="0" y="80" height="40" width="40" stroke="none" fill="#ccc" style="opacity: 1;"></rect><rect x="0" y="120" height="40" width="40" stroke="none" fill="#ccc" style="opacity: 0;"></rect><rect x="0" y="160" height="40" width="40" stroke="none" fill="#ccc" style="opacity: 1;"></rect><rect x="0" y="200" height="40" width="40" stroke="none" fill="#ccc" style="opacity: 0;"></rect><rect x="0" y="240" height="40" width="40" stroke="none" fill="#ccc" style="opacity: 1;"></rect><rect x="0" y="280" height="40" width="40" stroke="none" fill="#ccc" style="opacity: 0;"></rect><rect x="40" y="0" height="40" width="40" stroke="none" fill="#ccc" style="opacity: 0;"></rect><rect x="40" y="40" height="40" width="40" stroke="none" fill="#ccc" style="opacity: 1;"></rect><rect x="40" y="80" height="40" width="40" stroke="none" fill="#ccc" style="opacity: 0;"></rect><rect x="40" y="120" height="40" width="40" stroke="none" fill="#ccc" style="opacity: 1;"></rect><rect x="40" y="160" height="40" width="40" stroke="none" fill="#ccc" style="opacity: 0;"></rect><rect x="40" y="200" height="40" width="40" stroke="none" fill="#ccc" style="opacity: 1;"></rect><rect x="40" y="240" height="40" width="40" stroke="none" fill="#ccc" style="opacity: 0;"></rect><rect x="40" y="280" height="40" width="40" stroke="none" fill="#ccc" style="opacity: 1;"></rect><rect x="80" y="0" height="40" width="40" stroke="none" fill="#ccc" style="opacity: 1;"></rect><rect x="80" y="40" height="40" width="40" stroke="none" fill="#ccc" style="opacity: 0;"></rect><rect x="80" y="80" height="40" width="40" stroke="none" fill="#ccc" style="opacity: 1;"></rect><rect x="80" y="120" height="40" width="40" stroke="none" fill="#ccc" style="opacity: 0;"></rect><rect x="80" y="160" height="40" width="40" stroke="none" fill="#ccc" style="opacity: 1;"></rect><rect x="80" y="200" height="40" width="40" stroke="none" fill="#ccc" style="opacity: 0;"></rect><rect x="80" y="240" height="40" width="40" stroke="none" fill="#ccc" style="opacity: 1;"></rect><rect x="80" y="280" height="40" width="40" stroke="none" fill="#ccc" style="opacity: 0;"></rect><rect x="120" y="0" height="40" width="40" stroke="none" fill="#ccc" style="opacity: 0;"></rect><rect x="120" y="40" height="40" width="40" stroke="none" fill="#ccc" style="opacity: 1;"></rect><rect x="120" y="80" height="40" width="40" stroke="none" fill="#ccc" style="opacity: 0;"></rect><rect x="120" y="120" height="40" width="40" stroke="none" fill="#ccc" style="opacity: 1;"></rect><rect x="120" y="160" height="40" width="40" stroke="none" fill="#ccc" style="opacity: 0;"></rect><rect x="120" y="200" height="40" width="40" stroke="none" fill="#ccc" style="opacity: 1;"></rect><rect x="120" y="240" height="40" width="40" stroke="none" fill="#ccc" style="opacity: 0;"></rect><rect x="120" y="280" height="40" width="40" stroke="none" fill="#ccc" style="opacity: 1;"></rect><rect x="160" y="0" height="40" width="40" stroke="none" fill="#ccc" style="opacity: 1;"></rect><rect x="160" y="40" height="40" width="40" stroke="none" fill="#ccc" style="opacity: 0;"></rect><rect x="160" y="80" height="40" width="40" stroke="none" fill="#ccc" style="opacity: 1;"></rect><rect x="160" y="120" height="40" width="40" stroke="none" fill="#ccc" style="opacity: 0;"></rect><rect x="160" y="160" height="40" width="40" stroke="none" fill="#ccc" style="opacity: 1;"></rect><rect x="160" y="200" height="40" width="40" stroke="none" fill="#ccc" style="opacity: 0;"></rect><rect x="160" y="240" height="40" width="40" stroke="none" fill="#ccc" style="opacity: 1;"></rect><rect x="160" y="280" height="40" width="40" stroke="none" fill="#ccc" style="opacity: 0;"></rect><rect x="200" y="0" height="40" width="40" stroke="none" fill="#ccc" style="opacity: 0;"></rect><rect x="200" y="40" height="40" width="40" stroke="none" fill="#ccc" style="opacity: 1;"></rect><rect x="200" y="80" height="40" width="40" stroke="none" fill="#ccc" style="opacity: 0;"></rect><rect x="200" y="120" height="40" width="40" stroke="none" fill="#ccc" style="opacity: 1;"></rect><rect x="200" y="160" height="40" width="40" stroke="none" fill="#ccc" style="opacity: 0;"></rect><rect x="200" y="200" height="40" width="40" stroke="none" fill="#ccc" style="opacity: 1;"></rect><rect x="200" y="240" height="40" width="40" stroke="none" fill="#ccc" style="opacity: 0;"></rect><rect x="200" y="280" height="40" width="40" stroke="none" fill="#ccc" style="opacity: 1;"></rect><rect x="240" y="0" height="40" width="40" stroke="none" fill="#ccc" style="opacity: 1;"></rect><rect x="240" y="40" height="40" width="40" stroke="none" fill="#ccc" style="opacity: 0;"></rect><rect x="240" y="80" height="40" width="40" stroke="none" fill="#ccc" style="opacity: 1;"></rect><rect x="240" y="120" height="40" width="40" stroke="none" fill="#ccc" style="opacity: 0;"></rect><rect x="240" y="160" height="40" width="40" stroke="none" fill="#ccc" style="opacity: 1;"></rect><rect x="240" y="200" height="40" width="40" stroke="none" fill="#ccc" style="opacity: 0;"></rect><rect x="240" y="240" height="40" width="40" stroke="none" fill="#ccc" style="opacity: 1;"></rect><rect x="240" y="280" height="40" width="40" stroke="none" fill="#ccc" style="opacity: 0;"></rect><rect x="280" y="0" height="40" width="40" stroke="none" fill="#ccc" style="opacity: 0;"></rect><rect x="280" y="40" height="40" width="40" stroke="none" fill="#ccc" style="opacity: 1;"></rect><rect x="280" y="80" height="40" width="40" stroke="none" fill="#ccc" style="opacity: 0;"></rect><rect x="280" y="120" height="40" width="40" stroke="none" fill="#ccc" style="opacity: 1;"></rect><rect x="280" y="160" height="40" width="40" stroke="none" fill="#ccc" style="opacity: 0;"></rect><rect x="280" y="200" height="40" width="40" stroke="none" fill="#ccc" style="opacity: 1;"></rect><rect x="280" y="240" height="40" width="40" stroke="none" fill="#ccc" style="opacity: 0;"></rect><rect x="280" y="280" height="40" width="40" stroke="none" fill="#ccc" style="opacity: 1;"></rect><g class="pin" style="transform: translateX(60px) translateY(20px); transform-origin: 0px 0px 0px;"><circle r="12" fill="#FF9800" cx="0" cy="0"></circle><circle r="30" style="fill: rgb(0, 0, 0); opacity: 0;" cx="0" cy="0"></circle></g><g class="pin" style="transform: translateX(140px) translateY(20px); transform-origin: 0px 0px 0px;"><circle r="12" fill="#FF9800" cx="0" cy="0"></circle><circle r="30" style="fill: rgb(0, 0, 0); opacity: 0;" cx="0" cy="0"></circle></g><g class="pin" style="transform: translateX(220px) translateY(20px); transform-origin: 0px 0px 0px;"><circle r="12" fill="#FF9800" cx="0" cy="0"></circle><circle r="30" style="fill: rgb(0, 0, 0); opacity: 0;" cx="0" cy="0"></circle></g><g class="pin" style="transform: translateX(300px) translateY(20px); transform-origin: 0px 0px 0px;"><circle r="12" fill="#FF9800" cx="0" cy="0"></circle><circle r="30" style="fill: rgb(0, 0, 0); opacity: 0;" cx="0" cy="0"></circle></g><g class="pin" style="transform: translateX(20px) translateY(60px); transform-origin: 0px 0px 0px;"><circle r="12" fill="#FF9800" cx="0" cy="0"></circle><circle r="30" style="fill: rgb(0, 0, 0); opacity: 0;" cx="0" cy="0"></circle></g><g class="pin" style="transform: translateX(100px) translateY(60px); transform-origin: 0px 0px 0px;"><circle r="12" fill="#FF9800" cx="0" cy="0"></circle><circle r="30" style="fill: rgb(0, 0, 0); opacity: 0;" cx="0" cy="0"></circle></g><g class="pin" style="transform: translateX(180px) translateY(60px); transform-origin: 0px 0px 0px;"><circle r="12" fill="#FF9800" cx="0" cy="0"></circle><circle r="30" style="fill: rgb(0, 0, 0); opacity: 0;" cx="0" cy="0"></circle></g><g class="pin" style="transform: translateX(260px) translateY(60px); transform-origin: 0px 0px 0px;"><circle r="12" fill="#FF9800" cx="0" cy="0"></circle><circle r="30" style="fill: rgb(0, 0, 0); opacity: 0;" cx="0" cy="0"></circle></g><g class="pin" style="transform: translateX(60px) translateY(100px); transform-origin: 0px 0px 0px;"><circle r="12" fill="#FF9800" cx="0" cy="0"></circle><circle r="30" style="fill: rgb(0, 0, 0); opacity: 0;" cx="0" cy="0"></circle></g><g class="pin" style="transform: translateX(140px) translateY(100px); transform-origin: 0px 0px 0px;"><circle r="12" fill="#FF9800" cx="0" cy="0"></circle><circle r="30" style="fill: rgb(0, 0, 0); opacity: 0;" cx="0" cy="0"></circle></g><g class="pin" style="transform: translateX(220px) translateY(100px); transform-origin: 0px 0px 0px;"><circle r="12" fill="#FF9800" cx="0" cy="0"></circle><circle r="30" style="fill: rgb(0, 0, 0); opacity: 0;" cx="0" cy="0"></circle></g><g class="pin" style="transform: translateX(300px) translateY(100px); transform-origin: 0px 0px 0px;"><circle r="12" fill="#FF9800" cx="0" cy="0"></circle><circle r="30" style="fill: rgb(0, 0, 0); opacity: 0;" cx="0" cy="0"></circle></g><g class="pin" style="transform: translateX(20px) translateY(220px); transform-origin: 0px 0px 0px;"><circle r="12" fill="#00BCD4" cx="0" cy="0"></circle><circle r="30" style="fill: rgb(0, 0, 0); opacity: 0;" cx="0" cy="0"></circle></g><g class="pin" style="transform: translateX(100px) translateY(220px); transform-origin: 0px 0px 0px;"><circle r="12" fill="#00BCD4" cx="0" cy="0"></circle><circle r="30" style="fill: rgb(0, 0, 0); opacity: 0;" cx="0" cy="0"></circle></g><g class="pin" style="transform: translateX(180px) translateY(220px); transform-origin: 0px 0px 0px;"><circle r="12" fill="#00BCD4" cx="0" cy="0"></circle><circle r="30" style="fill: rgb(0, 0, 0); opacity: 0;" cx="0" cy="0"></circle></g><g class="pin" style="transform: translateX(260px) translateY(220px); transform-origin: 0px 0px 0px;"><circle r="12" fill="#00BCD4" cx="0" cy="0"></circle><circle r="30" style="fill: rgb(0, 0, 0); opacity: 0;" cx="0" cy="0"></circle></g><g class="pin" style="transform: translateX(60px) translateY(260px); transform-origin: 0px 0px 0px;"><circle r="12" fill="#00BCD4" cx="0" cy="0"></circle><circle r="30" style="fill: rgb(0, 0, 0); opacity: 0;" cx="0" cy="0"></circle></g><g class="pin" style="transform: translateX(140px) translateY(260px); transform-origin: 0px 0px 0px;"><circle r="12" fill="#00BCD4" cx="0" cy="0"></circle><circle r="30" style="fill: rgb(0, 0, 0); opacity: 0;" cx="0" cy="0"></circle></g><g class="pin" style="transform: translateX(220px) translateY(260px); transform-origin: 0px 0px 0px;"><circle r="12" fill="#00BCD4" cx="0" cy="0"></circle><circle r="30" style="fill: rgb(0, 0, 0); opacity: 0;" cx="0" cy="0"></circle></g><g class="pin" style="transform: translateX(300px) translateY(260px); transform-origin: 0px 0px 0px;"><circle r="12" fill="#00BCD4" cx="0" cy="0"></circle><circle r="30" style="fill: rgb(0, 0, 0); opacity: 0;" cx="0" cy="0"></circle></g><g class="pin" style="transform: translateX(20px) translateY(300px); transform-origin: 0px 0px 0px;"><circle r="12" fill="#00BCD4" cx="0" cy="0"></circle><circle r="30" style="fill: rgb(0, 0, 0); opacity: 0;" cx="0" cy="0"></circle></g><g class="pin" style="transform: translateX(100px) translateY(300px); transform-origin: 0px 0px 0px;"><circle r="12" fill="#00BCD4" cx="0" cy="0"></circle><circle r="30" style="fill: rgb(0, 0, 0); opacity: 0;" cx="0" cy="0"></circle></g><g class="pin" style="transform: translateX(180px) translateY(300px); transform-origin: 0px 0px 0px;"><circle r="12" fill="#00BCD4" cx="0" cy="0"></circle><circle r="30" style="fill: rgb(0, 0, 0); opacity: 0;" cx="0" cy="0"></circle></g><g class="pin" style="transform: translateX(260px) translateY(300px); transform-origin: 0px 0px 0px;"><circle r="12" fill="#00BCD4" cx="0" cy="0"></circle><circle r="30" style="fill: rgb(0, 0, 0); opacity: 0;" cx="0" cy="0"></circle></g></svg>
