<svg viewBox="-10 -10 340 340"  xmlns:svg="http://www.w3.org/2000/svg" xmlns="http://www.w3.org/2000/svg"><rect x="0" y="0" height="320" width="320" stroke="#fff" fill="none"></rect><rect x="0" y="0" height="40" width="40" stroke="none" fill="#ccc"></rect><rect x="0" y="40" height="40" width="40" stroke="none" fill="none"></rect><rect x="0" y="80" height="40" width="40" stroke="none" fill="#ccc"></rect><rect x="0" y="120" height="40" width="40" stroke="none" fill="none"></rect><rect x="0" y="160" height="40" width="40" stroke="none" fill="#ccc"></rect><rect x="0" y="200" height="40" width="40" stroke="none" fill="none"></rect><rect x="0" y="240" height="40" width="40" stroke="none" fill="#ccc"></rect><rect x="0" y="280" height="40" width="40" stroke="none" fill="none"></rect><rect x="40" y="0" height="40" width="40" stroke="none" fill="none"></rect><rect x="40" y="40" height="40" width="40" stroke="none" fill="#ccc"></rect><rect x="40" y="80" height="40" width="40" stroke="none" fill="none"></rect><rect x="40" y="120" height="40" width="40" stroke="none" fill="#ccc"></rect><rect x="40" y="160" height="40" width="40" stroke="none" fill="none"></rect><rect x="40" y="200" height="40" width="40" stroke="none" fill="#ccc"></rect><rect x="40" y="240" height="40" width="40" stroke="none" fill="none"></rect><rect x="40" y="280" height="40" width="40" stroke="none" fill="#ccc"></rect><rect x="80" y="0" height="40" width="40" stroke="none" fill="#ccc"></rect><rect x="80" y="40" height="40" width="40" stroke="none" fill="none"></rect><rect x="80" y="80" height="40" width="40" stroke="none" fill="#ccc"></rect><rect x="80" y="120" height="40" width="40" stroke="none" fill="none"></rect><rect x="80" y="160" height="40" width="40" stroke="none" fill="#ccc"></rect><rect x="80" y="200" height="40" width="40" stroke="none" fill="none"></rect><rect x="80" y="240" height="40" width="40" stroke="none" fill="#ccc"></rect><rect x="80" y="280" height="40" width="40" stroke="none" fill="none"></rect><rect x="120" y="0" height="40" width="40" stroke="none" fill="none"></rect><rect x="120" y="40" height="40" width="40" stroke="none" fill="#ccc"></rect><rect x="120" y="80" height="40" width="40" stroke="none" fill="none"></rect><rect x="120" y="120" height="40" width="40" stroke="none" fill="#ccc"></rect><rect x="120" y="160" height="40" width="40" stroke="none" fill="none"></rect><rect x="120" y="200" height="40" width="40" stroke="none" fill="#ccc"></rect><rect x="120" y="240" height="40" width="40" stroke="none" fill="none"></rect><rect x="120" y="280" height="40" width="40" stroke="none" fill="#ccc"></rect><rect x="160" y="0" height="40" width="40" stroke="none" fill="#ccc"></rect><rect x="160" y="40" height="40" width="40" stroke="none" fill="none"></rect><rect x="160" y="80" height="40" width="40" stroke="none" fill="#ccc"></rect><rect x="160" y="120" height="40" width="40" stroke="none" fill="none"></rect><rect x="160" y="160" height="40" width="40" stroke="none" fill="#ccc"></rect><rect x="160" y="200" height="40" width="40" stroke="none" fill="none"></rect><rect x="160" y="240" height="40" width="40" stroke="none" fill="#ccc"></rect><rect x="160" y="280" height="40" width="40" stroke="none" fill="none"></rect><rect x="200" y="0" height="40" width="40" stroke="none" fill="none"></rect><rect x="200" y="40" height="40" width="40" stroke="none" fill="#ccc"></rect><rect x="200" y="80" height="40" width="40" stroke="none" fill="none"></rect><rect x="200" y="120" height="40" width="40" stroke="none" fill="#ccc"></rect><rect x="200" y="160" height="40" width="40" stroke="none" fill="none"></rect><rect x="200" y="200" height="40" width="40" stroke="none" fill="#ccc"></rect><rect x="200" y="240" height="40" width="40" stroke="none" fill="none"></rect><rect x="200" y="280" height="40" width="40" stroke="none" fill="#ccc"></rect><rect x="240" y="0" height="40" width="40" stroke="none" fill="#ccc"></rect><rect x="240" y="40" height="40" width="40" stroke="none" fill="none"></rect><rect x="240" y="80" height="40" width="40" stroke="none" fill="#ccc"></rect><rect x="240" y="120" height="40" width="40" stroke="none" fill="none"></rect><rect x="240" y="160" height="40" width="40" stroke="none" fill="#ccc"></rect><rect x="240" y="200" height="40" width="40" stroke="none" fill="none"></rect><rect x="240" y="240" height="40" width="40" stroke="none" fill="#ccc"></rect><rect x="240" y="280" height="40" width="40" stroke="none" fill="none"></rect><rect x="280" y="0" height="40" width="40" stroke="none" fill="none"></rect><rect x="280" y="40" height="40" width="40" stroke="none" fill="#ccc"></rect><rect x="280" y="80" height="40" width="40" stroke="none" fill="none"></rect><rect x="280" y="120" height="40" width="40" stroke="none" fill="#ccc"></rect><rect x="280" y="160" height="40" width="40" stroke="none" fill="none"></rect><rect x="280" y="200" height="40" width="40" stroke="none" fill="#ccc"></rect><rect x="280" y="240" height="40" width="40" stroke="none" fill="none"></rect><rect x="280" y="280" height="40" width="40" stroke="none" fill="#ccc"></rect></svg>
