<svg viewBox="0 0 540 620" xmlns="http://www.w3.org/2000/svg"
    xmlns:xlink="http://www.w3.org/1999/xlink"><g><path d="M 20 160 l 500 0 l -250 433.0127018922193 z" fill="none" stroke="#999"></path><path d="M 61.666666666666664 160 L 40.83333333333333 196.0843918243516 L 499.1666666666667 196.0843918243516 L 478.3333333333333 160" fill="none" stroke="#999"></path><path d="M 103.33333333333333 160 L 61.666666666666664 232.1687836487032 L 478.3333333333333 232.1687836487032 L 436.6666666666667 160" fill="none" stroke="#999"></path><path d="M 145 160 L 82.5 268.25317547305485 L 457.5 268.25317547305485 L 395 160" fill="none" stroke="#999"></path><path d="M 186.66666666666666 160 L 103.33333333333333 304.3375672974064 L 436.6666666666667 304.3375672974064 L 353.33333333333337 160" fill="none" stroke="#999"></path><path d="M 228.33333333333331 160 L 124.16666666666666 340.42195912175805 L 415.83333333333337 340.42195912175805 L 311.6666666666667 160" fill="none" stroke="#999"></path><path d="M 270 160 L 145 376.50635094610965 L 395 376.50635094610965 L 270 160" fill="none" stroke="#999"></path><path d="M 311.66666666666663 160 L 165.83333333333331 412.59074277046125 L 374.1666666666667 412.59074277046125 L 228.33333333333337 160" fill="none" stroke="#999"></path><path d="M 353.3333333333333 160 L 186.66666666666666 448.67513459481285 L 353.33333333333337 448.67513459481285 L 186.66666666666669 160" fill="none" stroke="#999"></path><path d="M 395 160 L 207.5 484.75952641916444 L 332.5 484.75952641916444 L 145 160" fill="none" stroke="#999"></path><path d="M 436.66666666666663 160 L 228.33333333333331 520.8439182435161 L 311.6666666666667 520.8439182435161 L 103.33333333333337 160" fill="none" stroke="#999"></path><path d="M 478.3333333333333 160 L 249.16666666666666 556.9283100678676 L 290.83333333333337 556.9283100678676 L 61.666666666666686 160" fill="none" stroke="#999"></path></g><g transform="rotate(180, 270, 376.50635094610965) translate(0, 144.33756729740642)"><path d="M 20 160 l 500 0 l -250 433.0127018922193 z" fill="none" stroke="#999"></path><path d="M 61.666666666666664 160 L 40.83333333333333 196.0843918243516 L 499.1666666666667 196.0843918243516 L 478.3333333333333 160" fill="none" stroke="#999"></path><path d="M 103.33333333333333 160 L 61.666666666666664 232.1687836487032 L 478.3333333333333 232.1687836487032 L 436.6666666666667 160" fill="none" stroke="#999"></path><path d="M 145 160 L 82.5 268.25317547305485 L 457.5 268.25317547305485 L 395 160" fill="none" stroke="#999"></path><path d="M 186.66666666666666 160 L 103.33333333333333 304.3375672974064 L 436.6666666666667 304.3375672974064 L 353.33333333333337 160" fill="none" stroke="#999"></path><path d="M 228.33333333333331 160 L 124.16666666666666 340.42195912175805 L 415.83333333333337 340.42195912175805 L 311.6666666666667 160" fill="none" stroke="#999"></path><path d="M 270 160 L 145 376.50635094610965 L 395 376.50635094610965 L 270 160" fill="none" stroke="#999"></path><path d="M 311.66666666666663 160 L 165.83333333333331 412.59074277046125 L 374.1666666666667 412.59074277046125 L 228.33333333333337 160" fill="none" stroke="#999"></path><path d="M 353.3333333333333 160 L 186.66666666666666 448.67513459481285 L 353.33333333333337 448.67513459481285 L 186.66666666666669 160" fill="none" stroke="#999"></path><path d="M 395 160 L 207.5 484.75952641916444 L 332.5 484.75952641916444 L 145 160" fill="none" stroke="#999"></path><path d="M 436.66666666666663 160 L 228.33333333333331 520.8439182435161 L 311.6666666666667 520.8439182435161 L 103.33333333333337 160" fill="none" stroke="#999"></path><path d="M 478.3333333333333 160 L 249.16666666666666 556.9283100678676 L 290.83333333333337 556.9283100678676 L 61.666666666666686 160" fill="none" stroke="#999"></path></g><circle r="12" fill="#00BCD4" cx="270" cy="16" stroke=""></circle><circle r="20" style="fill: rgb(0, 0, 0); opacity: 0;" cx="270" cy="16"></circle><circle r="12" fill="#00BCD4" cx="249.16666666666666" cy="52.084391824351606" stroke=""></circle><circle r="20" style="fill: rgb(0, 0, 0); opacity: 0;" cx="249.16666666666666" cy="52.084391824351606"></circle><circle r="12" fill="#00BCD4" cx="290.83333333333337" cy="52.084391824351606" stroke=""></circle><circle r="20" style="fill: rgb(0, 0, 0); opacity: 0;" cx="290.83333333333337" cy="52.084391824351606"></circle><circle r="12" fill="#00BCD4" cx="228.33333333333334" cy="88.16878364870321" stroke=""></circle><circle r="20" style="fill: rgb(0, 0, 0); opacity: 0;" cx="228.33333333333334" cy="88.16878364870321"></circle><circle r="12" fill="#00BCD4" cx="270" cy="88.16878364870321" stroke=""></circle><circle r="20" style="fill: rgb(0, 0, 0); opacity: 0;" cx="270" cy="88.16878364870321"></circle><circle r="12" fill="#00BCD4" cx="311.66666666666663" cy="88.16878364870321" stroke=""></circle><circle r="20" style="fill: rgb(0, 0, 0); opacity: 0;" cx="311.66666666666663" cy="88.16878364870321"></circle><circle r="12" fill="#00BCD4" cx="207.5" cy="124.25317547305482" stroke=""></circle><circle r="20" style="fill: rgb(0, 0, 0); opacity: 0;" cx="207.5" cy="124.25317547305482"></circle><circle r="12" fill="#00BCD4" cx="249.16666666666669" cy="124.25317547305482" stroke=""></circle><circle r="20" style="fill: rgb(0, 0, 0); opacity: 0;" cx="249.16666666666669" cy="124.25317547305482"></circle><circle r="12" fill="#00BCD4" cx="290.8333333333333" cy="124.25317547305482" stroke=""></circle><circle r="20" style="fill: rgb(0, 0, 0); opacity: 0;" cx="290.8333333333333" cy="124.25317547305482"></circle><circle r="12" fill="#00BCD4" cx="332.5" cy="124.25317547305482" stroke=""></circle><circle r="20" style="fill: rgb(0, 0, 0); opacity: 0;" cx="332.5" cy="124.25317547305482"></circle><circle r="12" fill="#FFEB3B" cx="20" cy="160.33756729740642" stroke=""></circle><circle r="20" style="fill: rgb(0, 0, 0); opacity: 0;" cx="20" cy="160.33756729740642"></circle><circle r="12" fill="#FFEB3B" cx="61.666666666666686" cy="160.33756729740642" stroke=""></circle><circle r="20" style="fill: rgb(0, 0, 0); opacity: 0;" cx="61.666666666666686" cy="160.33756729740642"></circle><circle r="12" fill="#FFEB3B" cx="103.33333333333331" cy="160.33756729740642" stroke=""></circle><circle r="20" style="fill: rgb(0, 0, 0); opacity: 0;" cx="103.33333333333331" cy="160.33756729740642"></circle><circle r="12" fill="#FFEB3B" cx="145" cy="160.33756729740642" stroke=""></circle><circle r="20" style="fill: rgb(0, 0, 0); opacity: 0;" cx="145" cy="160.33756729740642"></circle><circle r="3" fill="#e5e5e5" cx="186.66666666666663" cy="160.33756729740642"></circle><circle r="20" style="fill: rgb(0, 0, 0); opacity: 0;" cx="186.66666666666663" cy="160.33756729740642"></circle><circle r="3" fill="#e5e5e5" cx="228.33333333333331" cy="160.33756729740642"></circle><circle r="20" style="fill: rgb(0, 0, 0); opacity: 0;" cx="228.33333333333331" cy="160.33756729740642"></circle><circle r="3" fill="#e5e5e5" cx="270" cy="160.33756729740642"></circle><circle r="20" style="fill: rgb(0, 0, 0); opacity: 0;" cx="270" cy="160.33756729740642"></circle><circle r="3" fill="#e5e5e5" cx="311.66666666666663" cy="160.33756729740642"></circle><circle r="20" style="fill: rgb(0, 0, 0); opacity: 0;" cx="311.66666666666663" cy="160.33756729740642"></circle><circle r="3" fill="#e5e5e5" cx="353.33333333333326" cy="160.33756729740642"></circle><circle r="20" style="fill: rgb(0, 0, 0); opacity: 0;" cx="353.33333333333326" cy="160.33756729740642"></circle><circle r="12" fill="#EF5350" cx="395" cy="160.33756729740642" stroke=""></circle><circle r="20" style="fill: rgb(0, 0, 0); opacity: 0;" cx="395" cy="160.33756729740642"></circle><circle r="12" fill="#EF5350" cx="436.66666666666663" cy="160.33756729740642" stroke=""></circle><circle r="20" style="fill: rgb(0, 0, 0); opacity: 0;" cx="436.66666666666663" cy="160.33756729740642"></circle><circle r="12" fill="#EF5350" cx="478.33333333333326" cy="160.33756729740642" stroke=""></circle><circle r="20" style="fill: rgb(0, 0, 0); opacity: 0;" cx="478.33333333333326" cy="160.33756729740642"></circle><circle r="12" fill="#EF5350" cx="520" cy="160.33756729740642" stroke=""></circle><circle r="20" style="fill: rgb(0, 0, 0); opacity: 0;" cx="520" cy="160.33756729740642"></circle><circle r="12" fill="#FFEB3B" cx="40.83333333333334" cy="196.42195912175802" stroke=""></circle><circle r="20" style="fill: rgb(0, 0, 0); opacity: 0;" cx="40.83333333333334" cy="196.42195912175802"></circle><circle r="12" fill="#FFEB3B" cx="82.50000000000003" cy="196.42195912175802" stroke=""></circle><circle r="20" style="fill: rgb(0, 0, 0); opacity: 0;" cx="82.50000000000003" cy="196.42195912175802"></circle><circle r="12" fill="#FFEB3B" cx="124.16666666666666" cy="196.42195912175802" stroke=""></circle><circle r="20" style="fill: rgb(0, 0, 0); opacity: 0;" cx="124.16666666666666" cy="196.42195912175802"></circle><circle r="3" fill="#e5e5e5" cx="165.83333333333334" cy="196.42195912175802"></circle><circle r="20" style="fill: rgb(0, 0, 0); opacity: 0;" cx="165.83333333333334" cy="196.42195912175802"></circle><circle r="3" fill="#e5e5e5" cx="207.49999999999997" cy="196.42195912175802"></circle><circle r="20" style="fill: rgb(0, 0, 0); opacity: 0;" cx="207.49999999999997" cy="196.42195912175802"></circle><circle r="3" fill="#e5e5e5" cx="249.16666666666666" cy="196.42195912175802"></circle><circle r="20" style="fill: rgb(0, 0, 0); opacity: 0;" cx="249.16666666666666" cy="196.42195912175802"></circle><circle r="3" fill="#e5e5e5" cx="290.83333333333337" cy="196.42195912175802"></circle><circle r="20" style="fill: rgb(0, 0, 0); opacity: 0;" cx="290.83333333333337" cy="196.42195912175802"></circle><circle r="3" fill="#e5e5e5" cx="332.5" cy="196.42195912175802"></circle><circle r="20" style="fill: rgb(0, 0, 0); opacity: 0;" cx="332.5" cy="196.42195912175802"></circle><circle r="3" fill="#e5e5e5" cx="374.16666666666663" cy="196.42195912175802"></circle><circle r="20" style="fill: rgb(0, 0, 0); opacity: 0;" cx="374.16666666666663" cy="196.42195912175802"></circle><circle r="12" fill="#EF5350" cx="415.83333333333337" cy="196.42195912175802" stroke=""></circle><circle r="20" style="fill: rgb(0, 0, 0); opacity: 0;" cx="415.83333333333337" cy="196.42195912175802"></circle><circle r="12" fill="#EF5350" cx="457.5" cy="196.42195912175802" stroke=""></circle><circle r="20" style="fill: rgb(0, 0, 0); opacity: 0;" cx="457.5" cy="196.42195912175802"></circle><circle r="12" fill="#EF5350" cx="499.16666666666663" cy="196.42195912175802" stroke=""></circle><circle r="20" style="fill: rgb(0, 0, 0); opacity: 0;" cx="499.16666666666663" cy="196.42195912175802"></circle><circle r="12" fill="#FFEB3B" cx="61.666666666666686" cy="232.50635094610965" stroke=""></circle><circle r="20" style="fill: rgb(0, 0, 0); opacity: 0;" cx="61.666666666666686" cy="232.50635094610965"></circle><circle r="12" fill="#FFEB3B" cx="103.33333333333337" cy="232.50635094610965" stroke=""></circle><circle r="20" style="fill: rgb(0, 0, 0); opacity: 0;" cx="103.33333333333337" cy="232.50635094610965"></circle><circle r="3" fill="#e5e5e5" cx="145" cy="232.50635094610965"></circle><circle r="20" style="fill: rgb(0, 0, 0); opacity: 0;" cx="145" cy="232.50635094610965"></circle><circle r="3" fill="#e5e5e5" cx="186.66666666666669" cy="232.50635094610965"></circle><circle r="20" style="fill: rgb(0, 0, 0); opacity: 0;" cx="186.66666666666669" cy="232.50635094610965"></circle><circle r="3" fill="#e5e5e5" cx="228.33333333333331" cy="232.50635094610965"></circle><circle r="20" style="fill: rgb(0, 0, 0); opacity: 0;" cx="228.33333333333331" cy="232.50635094610965"></circle><circle r="3" fill="#e5e5e5" cx="270" cy="232.50635094610965"></circle><circle r="20" style="fill: rgb(0, 0, 0); opacity: 0;" cx="270" cy="232.50635094610965"></circle><circle r="3" fill="#e5e5e5" cx="311.6666666666667" cy="232.50635094610965"></circle><circle r="20" style="fill: rgb(0, 0, 0); opacity: 0;" cx="311.6666666666667" cy="232.50635094610965"></circle><circle r="3" fill="#e5e5e5" cx="353.3333333333333" cy="232.50635094610965"></circle><circle r="20" style="fill: rgb(0, 0, 0); opacity: 0;" cx="353.3333333333333" cy="232.50635094610965"></circle><circle r="3" fill="#e5e5e5" cx="394.99999999999994" cy="232.50635094610965"></circle><circle r="20" style="fill: rgb(0, 0, 0); opacity: 0;" cx="394.99999999999994" cy="232.50635094610965"></circle><circle r="12" fill="#EF5350" cx="436.6666666666667" cy="232.50635094610965" stroke=""></circle><circle r="20" style="fill: rgb(0, 0, 0); opacity: 0;" cx="436.6666666666667" cy="232.50635094610965"></circle><circle r="12" fill="#EF5350" cx="478.3333333333333" cy="232.50635094610965" stroke=""></circle><circle r="20" style="fill: rgb(0, 0, 0); opacity: 0;" cx="478.3333333333333" cy="232.50635094610965"></circle><circle r="12" fill="#FFEB3B" cx="82.5" cy="268.59074277046125" stroke=""></circle><circle r="20" style="fill: rgb(0, 0, 0); opacity: 0;" cx="82.5" cy="268.59074277046125"></circle><circle r="3" fill="#e5e5e5" cx="124.16666666666669" cy="268.59074277046125"></circle><circle r="20" style="fill: rgb(0, 0, 0); opacity: 0;" cx="124.16666666666669" cy="268.59074277046125"></circle><circle r="3" fill="#e5e5e5" cx="165.83333333333331" cy="268.59074277046125"></circle><circle r="20" style="fill: rgb(0, 0, 0); opacity: 0;" cx="165.83333333333331" cy="268.59074277046125"></circle><circle r="3" fill="#e5e5e5" cx="207.5" cy="268.59074277046125"></circle><circle r="20" style="fill: rgb(0, 0, 0); opacity: 0;" cx="207.5" cy="268.59074277046125"></circle><circle r="3" fill="#e5e5e5" cx="249.16666666666663" cy="268.59074277046125"></circle><circle r="20" style="fill: rgb(0, 0, 0); opacity: 0;" cx="249.16666666666663" cy="268.59074277046125"></circle><circle r="3" fill="#e5e5e5" cx="290.8333333333333" cy="268.59074277046125"></circle><circle r="20" style="fill: rgb(0, 0, 0); opacity: 0;" cx="290.8333333333333" cy="268.59074277046125"></circle><circle r="3" fill="#e5e5e5" cx="332.5" cy="268.59074277046125"></circle><circle r="20" style="fill: rgb(0, 0, 0); opacity: 0;" cx="332.5" cy="268.59074277046125"></circle><circle r="3" fill="#e5e5e5" cx="374.16666666666663" cy="268.59074277046125"></circle><circle r="20" style="fill: rgb(0, 0, 0); opacity: 0;" cx="374.16666666666663" cy="268.59074277046125"></circle><circle r="3" fill="#e5e5e5" cx="415.83333333333326" cy="268.59074277046125"></circle><circle r="20" style="fill: rgb(0, 0, 0); opacity: 0;" cx="415.83333333333326" cy="268.59074277046125"></circle><circle r="12" fill="#EF5350" cx="457.5" cy="268.59074277046125" stroke=""></circle><circle r="20" style="fill: rgb(0, 0, 0); opacity: 0;" cx="457.5" cy="268.59074277046125"></circle><circle r="3" fill="#e5e5e5" cx="103.33333333333334" cy="304.67513459481285"></circle><circle r="20" style="fill: rgb(0, 0, 0); opacity: 0;" cx="103.33333333333334" cy="304.67513459481285"></circle><circle r="3" fill="#e5e5e5" cx="145.00000000000003" cy="304.67513459481285"></circle><circle r="20" style="fill: rgb(0, 0, 0); opacity: 0;" cx="145.00000000000003" cy="304.67513459481285"></circle><circle r="3" fill="#e5e5e5" cx="186.66666666666666" cy="304.67513459481285"></circle><circle r="20" style="fill: rgb(0, 0, 0); opacity: 0;" cx="186.66666666666666" cy="304.67513459481285"></circle><circle r="3" fill="#e5e5e5" cx="228.33333333333334" cy="304.67513459481285"></circle><circle r="20" style="fill: rgb(0, 0, 0); opacity: 0;" cx="228.33333333333334" cy="304.67513459481285"></circle><circle r="3" fill="#e5e5e5" cx="270" cy="304.67513459481285"></circle><circle r="20" style="fill: rgb(0, 0, 0); opacity: 0;" cx="270" cy="304.67513459481285"></circle><circle r="3" fill="#e5e5e5" cx="311.66666666666663" cy="304.67513459481285"></circle><circle r="20" style="fill: rgb(0, 0, 0); opacity: 0;" cx="311.66666666666663" cy="304.67513459481285"></circle><circle r="3" fill="#e5e5e5" cx="353.33333333333337" cy="304.67513459481285"></circle><circle r="20" style="fill: rgb(0, 0, 0); opacity: 0;" cx="353.33333333333337" cy="304.67513459481285"></circle><circle r="3" fill="#e5e5e5" cx="395" cy="304.67513459481285"></circle><circle r="20" style="fill: rgb(0, 0, 0); opacity: 0;" cx="395" cy="304.67513459481285"></circle><circle r="3" fill="#e5e5e5" cx="436.66666666666663" cy="304.67513459481285"></circle><circle r="20" style="fill: rgb(0, 0, 0); opacity: 0;" cx="436.66666666666663" cy="304.67513459481285"></circle><circle r="12" fill="#8BC34A" cx="82.5" cy="340.75952641916444" stroke=""></circle><circle r="20" style="fill: rgb(0, 0, 0); opacity: 0;" cx="82.5" cy="340.75952641916444"></circle><circle r="3" fill="#e5e5e5" cx="124.16666666666669" cy="340.75952641916444"></circle><circle r="20" style="fill: rgb(0, 0, 0); opacity: 0;" cx="124.16666666666669" cy="340.75952641916444"></circle><circle r="3" fill="#e5e5e5" cx="165.83333333333331" cy="340.75952641916444"></circle><circle r="20" style="fill: rgb(0, 0, 0); opacity: 0;" cx="165.83333333333331" cy="340.75952641916444"></circle><circle r="3" fill="#e5e5e5" cx="207.5" cy="340.75952641916444"></circle><circle r="20" style="fill: rgb(0, 0, 0); opacity: 0;" cx="207.5" cy="340.75952641916444"></circle><circle r="3" fill="#e5e5e5" cx="249.16666666666663" cy="340.75952641916444"></circle><circle r="20" style="fill: rgb(0, 0, 0); opacity: 0;" cx="249.16666666666663" cy="340.75952641916444"></circle><circle r="3" fill="#e5e5e5" cx="290.8333333333333" cy="340.75952641916444"></circle><circle r="20" style="fill: rgb(0, 0, 0); opacity: 0;" cx="290.8333333333333" cy="340.75952641916444"></circle><circle r="3" fill="#e5e5e5" cx="332.5" cy="340.75952641916444"></circle><circle r="20" style="fill: rgb(0, 0, 0); opacity: 0;" cx="332.5" cy="340.75952641916444"></circle><circle r="3" fill="#e5e5e5" cx="374.16666666666663" cy="340.75952641916444"></circle><circle r="20" style="fill: rgb(0, 0, 0); opacity: 0;" cx="374.16666666666663" cy="340.75952641916444"></circle><circle r="3" fill="#e5e5e5" cx="415.83333333333326" cy="340.75952641916444"></circle><circle r="20" style="fill: rgb(0, 0, 0); opacity: 0;" cx="415.83333333333326" cy="340.75952641916444"></circle><circle r="12" fill="#9C27B0" cx="457.5" cy="340.75952641916444" stroke=""></circle><circle r="20" style="fill: rgb(0, 0, 0); opacity: 0;" cx="457.5" cy="340.75952641916444"></circle><circle r="12" fill="#8BC34A" cx="61.666666666666686" cy="376.84391824351604" stroke=""></circle><circle r="20" style="fill: rgb(0, 0, 0); opacity: 0;" cx="61.666666666666686" cy="376.84391824351604"></circle><circle r="12" fill="#8BC34A" cx="103.33333333333337" cy="376.84391824351604" stroke=""></circle><circle r="20" style="fill: rgb(0, 0, 0); opacity: 0;" cx="103.33333333333337" cy="376.84391824351604"></circle><circle r="3" fill="#e5e5e5" cx="145" cy="376.84391824351604"></circle><circle r="20" style="fill: rgb(0, 0, 0); opacity: 0;" cx="145" cy="376.84391824351604"></circle><circle r="3" fill="#e5e5e5" cx="186.66666666666669" cy="376.84391824351604"></circle><circle r="20" style="fill: rgb(0, 0, 0); opacity: 0;" cx="186.66666666666669" cy="376.84391824351604"></circle><circle r="3" fill="#e5e5e5" cx="228.33333333333331" cy="376.84391824351604"></circle><circle r="20" style="fill: rgb(0, 0, 0); opacity: 0;" cx="228.33333333333331" cy="376.84391824351604"></circle><circle r="3" fill="#e5e5e5" cx="270" cy="376.84391824351604"></circle><circle r="20" style="fill: rgb(0, 0, 0); opacity: 0;" cx="270" cy="376.84391824351604"></circle><circle r="3" fill="#e5e5e5" cx="311.6666666666667" cy="376.84391824351604"></circle><circle r="20" style="fill: rgb(0, 0, 0); opacity: 0;" cx="311.6666666666667" cy="376.84391824351604"></circle><circle r="3" fill="#e5e5e5" cx="353.3333333333333" cy="376.84391824351604"></circle><circle r="20" style="fill: rgb(0, 0, 0); opacity: 0;" cx="353.3333333333333" cy="376.84391824351604"></circle><circle r="3" fill="#e5e5e5" cx="394.99999999999994" cy="376.84391824351604"></circle><circle r="20" style="fill: rgb(0, 0, 0); opacity: 0;" cx="394.99999999999994" cy="376.84391824351604"></circle><circle r="12" fill="#9C27B0" cx="436.6666666666667" cy="376.84391824351604" stroke=""></circle><circle r="20" style="fill: rgb(0, 0, 0); opacity: 0;" cx="436.6666666666667" cy="376.84391824351604"></circle><circle r="12" fill="#9C27B0" cx="478.3333333333333" cy="376.84391824351604" stroke=""></circle><circle r="20" style="fill: rgb(0, 0, 0); opacity: 0;" cx="478.3333333333333" cy="376.84391824351604"></circle><circle r="12" fill="#8BC34A" cx="40.83333333333334" cy="412.92831006786764" stroke=""></circle><circle r="20" style="fill: rgb(0, 0, 0); opacity: 0;" cx="40.83333333333334" cy="412.92831006786764"></circle><circle r="12" fill="#8BC34A" cx="82.50000000000003" cy="412.92831006786764" stroke=""></circle><circle r="20" style="fill: rgb(0, 0, 0); opacity: 0;" cx="82.50000000000003" cy="412.92831006786764"></circle><circle r="12" fill="#8BC34A" cx="124.16666666666666" cy="412.92831006786764" stroke=""></circle><circle r="20" style="fill: rgb(0, 0, 0); opacity: 0;" cx="124.16666666666666" cy="412.92831006786764"></circle><circle r="3" fill="#e5e5e5" cx="165.83333333333334" cy="412.92831006786764"></circle><circle r="20" style="fill: rgb(0, 0, 0); opacity: 0;" cx="165.83333333333334" cy="412.92831006786764"></circle><circle r="3" fill="#e5e5e5" cx="207.49999999999997" cy="412.92831006786764"></circle><circle r="20" style="fill: rgb(0, 0, 0); opacity: 0;" cx="207.49999999999997" cy="412.92831006786764"></circle><circle r="3" fill="#e5e5e5" cx="249.16666666666666" cy="412.92831006786764"></circle><circle r="20" style="fill: rgb(0, 0, 0); opacity: 0;" cx="249.16666666666666" cy="412.92831006786764"></circle><circle r="3" fill="#e5e5e5" cx="290.83333333333337" cy="412.92831006786764"></circle><circle r="20" style="fill: rgb(0, 0, 0); opacity: 0;" cx="290.83333333333337" cy="412.92831006786764"></circle><circle r="3" fill="#e5e5e5" cx="332.5" cy="412.92831006786764"></circle><circle r="20" style="fill: rgb(0, 0, 0); opacity: 0;" cx="332.5" cy="412.92831006786764"></circle><circle r="3" fill="#e5e5e5" cx="374.16666666666663" cy="412.92831006786764"></circle><circle r="20" style="fill: rgb(0, 0, 0); opacity: 0;" cx="374.16666666666663" cy="412.92831006786764"></circle><circle r="12" fill="#9C27B0" cx="415.83333333333337" cy="412.92831006786764" stroke=""></circle><circle r="20" style="fill: rgb(0, 0, 0); opacity: 0;" cx="415.83333333333337" cy="412.92831006786764"></circle><circle r="12" fill="#9C27B0" cx="457.5" cy="412.92831006786764" stroke=""></circle><circle r="20" style="fill: rgb(0, 0, 0); opacity: 0;" cx="457.5" cy="412.92831006786764"></circle><circle r="12" fill="#9C27B0" cx="499.16666666666663" cy="412.92831006786764" stroke=""></circle><circle r="20" style="fill: rgb(0, 0, 0); opacity: 0;" cx="499.16666666666663" cy="412.92831006786764"></circle><circle r="12" fill="#8BC34A" cx="20" cy="449.0127018922193" stroke=""></circle><circle r="20" style="fill: rgb(0, 0, 0); opacity: 0;" cx="20" cy="449.0127018922193"></circle><circle r="12" fill="#8BC34A" cx="61.666666666666686" cy="449.0127018922193" stroke=""></circle><circle r="20" style="fill: rgb(0, 0, 0); opacity: 0;" cx="61.666666666666686" cy="449.0127018922193"></circle><circle r="12" fill="#8BC34A" cx="103.33333333333331" cy="449.0127018922193" stroke=""></circle><circle r="20" style="fill: rgb(0, 0, 0); opacity: 0;" cx="103.33333333333331" cy="449.0127018922193"></circle><circle r="12" fill="#8BC34A" cx="145" cy="449.0127018922193" stroke=""></circle><circle r="20" style="fill: rgb(0, 0, 0); opacity: 0;" cx="145" cy="449.0127018922193"></circle><circle r="3" fill="#e5e5e5" cx="186.66666666666663" cy="449.0127018922193"></circle><circle r="20" style="fill: rgb(0, 0, 0); opacity: 0;" cx="186.66666666666663" cy="449.0127018922193"></circle><circle r="3" fill="#e5e5e5" cx="228.33333333333331" cy="449.0127018922193"></circle><circle r="20" style="fill: rgb(0, 0, 0); opacity: 0;" cx="228.33333333333331" cy="449.0127018922193"></circle><circle r="3" fill="#e5e5e5" cx="270" cy="449.0127018922193"></circle><circle r="20" style="fill: rgb(0, 0, 0); opacity: 0;" cx="270" cy="449.0127018922193"></circle><circle r="3" fill="#e5e5e5" cx="311.66666666666663" cy="449.0127018922193"></circle><circle r="20" style="fill: rgb(0, 0, 0); opacity: 0;" cx="311.66666666666663" cy="449.0127018922193"></circle><circle r="3" fill="#e5e5e5" cx="353.33333333333326" cy="449.0127018922193"></circle><circle r="20" style="fill: rgb(0, 0, 0); opacity: 0;" cx="353.33333333333326" cy="449.0127018922193"></circle><circle r="12" fill="#9C27B0" cx="395" cy="449.0127018922193" stroke=""></circle><circle r="20" style="fill: rgb(0, 0, 0); opacity: 0;" cx="395" cy="449.0127018922193"></circle><circle r="12" fill="#9C27B0" cx="436.66666666666663" cy="449.0127018922193" stroke=""></circle><circle r="20" style="fill: rgb(0, 0, 0); opacity: 0;" cx="436.66666666666663" cy="449.0127018922193"></circle><circle r="12" fill="#9C27B0" cx="478.33333333333326" cy="449.0127018922193" stroke=""></circle><circle r="20" style="fill: rgb(0, 0, 0); opacity: 0;" cx="478.33333333333326" cy="449.0127018922193"></circle><circle r="12" fill="#9C27B0" cx="520" cy="449.0127018922193" stroke=""></circle><circle r="20" style="fill: rgb(0, 0, 0); opacity: 0;" cx="520" cy="449.0127018922193"></circle><circle r="12" fill="#FF9800" cx="207.5" cy="485.0970937165709" stroke=""></circle><circle r="20" style="fill: rgb(0, 0, 0); opacity: 0;" cx="207.5" cy="485.0970937165709"></circle><circle r="12" fill="#FF9800" cx="249.16666666666669" cy="485.0970937165709" stroke=""></circle><circle r="20" style="fill: rgb(0, 0, 0); opacity: 0;" cx="249.16666666666669" cy="485.0970937165709"></circle><circle r="12" fill="#FF9800" cx="290.8333333333333" cy="485.0970937165709" stroke=""></circle><circle r="20" style="fill: rgb(0, 0, 0); opacity: 0;" cx="290.8333333333333" cy="485.0970937165709"></circle><circle r="12" fill="#FF9800" cx="332.5" cy="485.0970937165709" stroke=""></circle><circle r="20" style="fill: rgb(0, 0, 0); opacity: 0;" cx="332.5" cy="485.0970937165709"></circle><circle r="12" fill="#FF9800" cx="228.33333333333334" cy="521.1814855409225" stroke=""></circle><circle r="20" style="fill: rgb(0, 0, 0); opacity: 0;" cx="228.33333333333334" cy="521.1814855409225"></circle><circle r="12" fill="#FF9800" cx="270" cy="521.1814855409225" stroke=""></circle><circle r="20" style="fill: rgb(0, 0, 0); opacity: 0;" cx="270" cy="521.1814855409225"></circle><circle r="12" fill="#FF9800" cx="311.66666666666663" cy="521.1814855409225" stroke=""></circle><circle r="20" style="fill: rgb(0, 0, 0); opacity: 0;" cx="311.66666666666663" cy="521.1814855409225"></circle><circle r="12" fill="#FF9800" cx="249.16666666666666" cy="557.265877365274" stroke=""></circle><circle r="20" style="fill: rgb(0, 0, 0); opacity: 0;" cx="249.16666666666666" cy="557.265877365274"></circle><circle r="12" fill="#FF9800" cx="290.83333333333337" cy="557.265877365274" stroke=""></circle><circle r="20" style="fill: rgb(0, 0, 0); opacity: 0;" cx="290.83333333333337" cy="557.265877365274"></circle><circle r="12" fill="#FF9800" cx="270" cy="593.3502691896257" stroke=""></circle><circle r="20" style="fill: rgb(0, 0, 0); opacity: 0;" cx="270" cy="593.3502691896257"></circle></svg>
