<svg viewBox="-20 -20 640 640" xmlns:svg="http://www.w3.org/2000/svg" xmlns="http://www.w3.org/2000/svg"><rect x="0" y="0" height="600" width="600" stroke="#fff" fill="none"></rect><rect x="100" y="100" height="400" width="400" stroke="#fff" fill="none"></rect><rect x="200" y="200" height="200" width="200" stroke="#fff" fill="none"></rect><line x1="300" y1="0" x2="300" y2="200" stroke="#fff" fill="none"></line><line x1="300" y1="600" x2="300" y2="400" stroke="#fff" fill="none"></line><line x1="0" y1="300" x2="200" y2="300" stroke="#fff" fill="none"></line><line x1="400" y1="300" x2="600" y2="300" stroke="#fff" fill="none"></line><circle r="3" fill="#e5e5e5" cx="0" cy="0"></circle><circle r="20" style="fill: rgb(0, 0, 0); opacity: 0;" cx="0" cy="0"></circle><circle r="3" fill="#e5e5e5" cx="300" cy="0"></circle><circle r="20" style="fill: rgb(0, 0, 0); opacity: 0;" cx="300" cy="0"></circle><circle r="3" fill="#e5e5e5" cx="600" cy="0"></circle><circle r="20" style="fill: rgb(0, 0, 0); opacity: 0;" cx="600" cy="0"></circle><circle r="3" fill="#e5e5e5" cx="100" cy="100"></circle><circle r="20" style="fill: rgb(0, 0, 0); opacity: 0;" cx="100" cy="100"></circle><circle r="3" fill="#e5e5e5" cx="300" cy="100"></circle><circle r="20" style="fill: rgb(0, 0, 0); opacity: 0;" cx="300" cy="100"></circle><circle r="3" fill="#e5e5e5" cx="500" cy="100"></circle><circle r="20" style="fill: rgb(0, 0, 0); opacity: 0;" cx="500" cy="100"></circle><circle r="3" fill="#e5e5e5" cx="200" cy="200"></circle><circle r="20" style="fill: rgb(0, 0, 0); opacity: 0;" cx="200" cy="200"></circle><circle r="3" fill="#e5e5e5" cx="300" cy="200"></circle><circle r="20" style="fill: rgb(0, 0, 0); opacity: 0;" cx="300" cy="200"></circle><circle r="3" fill="#e5e5e5" cx="400" cy="200"></circle><circle r="20" style="fill: rgb(0, 0, 0); opacity: 0;" cx="400" cy="200"></circle><circle r="3" fill="#e5e5e5" cx="0" cy="300"></circle><circle r="20" style="fill: rgb(0, 0, 0); opacity: 0;" cx="0" cy="300"></circle><circle r="3" fill="#e5e5e5" cx="100" cy="300"></circle><circle r="20" style="fill: rgb(0, 0, 0); opacity: 0;" cx="100" cy="300"></circle><circle r="3" fill="#e5e5e5" cx="200" cy="300"></circle><circle r="20" style="fill: rgb(0, 0, 0); opacity: 0;" cx="200" cy="300"></circle><circle r="3" fill="#e5e5e5" cx="400" cy="300"></circle><circle r="20" style="fill: rgb(0, 0, 0); opacity: 0;" cx="400" cy="300"></circle><circle r="3" fill="#e5e5e5" cx="500" cy="300"></circle><circle r="20" style="fill: rgb(0, 0, 0); opacity: 0;" cx="500" cy="300"></circle><circle r="3" fill="#e5e5e5" cx="600" cy="300"></circle><circle r="20" style="fill: rgb(0, 0, 0); opacity: 0;" cx="600" cy="300"></circle><circle r="3" fill="#e5e5e5" cx="200" cy="400"></circle><circle r="20" style="fill: rgb(0, 0, 0); opacity: 0;" cx="200" cy="400"></circle><circle r="3" fill="#e5e5e5" cx="300" cy="400"></circle><circle r="20" style="fill: rgb(0, 0, 0); opacity: 0;" cx="300" cy="400"></circle><circle r="3" fill="#e5e5e5" cx="400" cy="400"></circle><circle r="20" style="fill: rgb(0, 0, 0); opacity: 0;" cx="400" cy="400"></circle><circle r="3" fill="#e5e5e5" cx="100" cy="500"></circle><circle r="20" style="fill: rgb(0, 0, 0); opacity: 0;" cx="100" cy="500"></circle><circle r="3" fill="#e5e5e5" cx="300" cy="500"></circle><circle r="20" style="fill: rgb(0, 0, 0); opacity: 0;" cx="300" cy="500"></circle><circle r="3" fill="#e5e5e5" cx="500" cy="500"></circle><circle r="20" style="fill: rgb(0, 0, 0); opacity: 0;" cx="500" cy="500"></circle><circle r="3" fill="#e5e5e5" cx="0" cy="600"></circle><circle r="20" style="fill: rgb(0, 0, 0); opacity: 0;" cx="0" cy="600"></circle><circle r="3" fill="#e5e5e5" cx="300" cy="600"></circle><circle r="20" style="fill: rgb(0, 0, 0); opacity: 0;" cx="300" cy="600"></circle><circle r="3" fill="#e5e5e5" cx="600" cy="600"></circle><circle r="20" style="fill: rgb(0, 0, 0); opacity: 0;" cx="600" cy="600"></circle><g class="pin" style="transform: translateX(400px) translateY(400px); transform-origin: 0px 0px 0px;"><circle r="12" fill="#00BCD4" cx="0" cy="0"></circle><circle r="20" style="fill: rgb(0, 0, 0); opacity: 0;" cx="0" cy="0"></circle></g><g class="pin" style="transform: translateX(400px) translateY(200px); transform-origin: 0px 0px 0px;"><circle r="12" fill="#FF9800" cx="0" cy="0"></circle><circle r="20" style="fill: rgb(0, 0, 0); opacity: 0;" cx="0" cy="0"></circle></g><g class="pin" style="transform: translateX(200px) translateY(200px); transform-origin: 0px 0px 0px;"><circle r="12" fill="#00BCD4" cx="0" cy="0"></circle><circle r="20" style="fill: rgb(0, 0, 0); opacity: 0;" cx="0" cy="0"></circle></g><g class="pin" style="transform: translateX(300px) translateY(200px); transform-origin: 0px 0px 0px;"><circle r="12" fill="#FF9800" cx="0" cy="0"></circle><circle r="20" style="fill: rgb(0, 0, 0); opacity: 0;" cx="0" cy="0"></circle></g><g class="pin" style="transform: translateX(400px) translateY(300px); transform-origin: 0px 0px 0px;"><circle r="12" fill="#FF9800" cx="0" cy="0"></circle><circle r="20" style="fill: rgb(0, 0, 0); opacity: 0;" cx="0" cy="0"></circle></g><g class="pin" style="transform: translateX(500px) translateY(300px); transform-origin: 0px 0px 0px;"><circle r="12" fill="#FF9800" cx="0" cy="0"></circle><circle r="20" style="fill: rgb(0, 0, 0); opacity: 0;" cx="0" cy="0"></circle></g><g class="pin" style="transform: translateX(600px) translateY(300px); transform-origin: 0px 0px 0px;"><circle r="12" fill="#FF9800" cx="0" cy="0"></circle><circle r="20" style="fill: rgb(0, 0, 0); opacity: 0;" cx="0" cy="0"></circle></g><g class="pin" style="transform: translateX(200px) translateY(300px); transform-origin: 0px 0px 0px;"><circle r="12" fill="#00BCD4" cx="0" cy="0"></circle><circle r="20" style="fill: rgb(0, 0, 0); opacity: 0;" cx="0" cy="0"></circle></g><g class="pin" style="transform: translateX(300px) translateY(500px); transform-origin: 0px 0px 0px;"><circle r="12" fill="#00BCD4" cx="0" cy="0"></circle><circle r="20" style="fill: rgb(0, 0, 0); opacity: 0;" cx="0" cy="0"></circle></g><g class="pin" style="transform: translateX(300px) translateY(600px); transform-origin: 0px 0px 0px;"><circle r="12" fill="#00BCD4" cx="0" cy="0"></circle><circle r="20" style="fill: rgb(0, 0, 0); opacity: 0;" cx="0" cy="0"></circle></g><g class="pin" style="transform: translateX(600px) translateY(0px); transform-origin: 0px 0px 0px;"><circle r="12" fill="#FF9800" cx="0" cy="0"></circle><circle r="20" style="fill: rgb(0, 0, 0); opacity: 0;" cx="0" cy="0"></circle></g><g class="pin" style="transform: translateX(0px) translateY(600px); transform-origin: 0px 0px 0px;"><circle r="12" fill="#FF9800" cx="0" cy="0"></circle><circle r="20" style="fill: rgb(0, 0, 0); opacity: 0;" cx="0" cy="0"></circle></g></svg>
