<svg viewBox="-400 -400 800 800" xmlns:svg="http://www.w3.org/2000/svg" xmlns="http://www.w3.org/2000/svg">
<rect x="-60" y="-60" height="120" width="120" stroke="#fff" fill="none"></rect><g class="right"><rect x="60" y="-60" height="40" width="40" stroke="#fff" fill="#fff"></rect><rect x="100" y="-60" height="40" width="40" stroke="#fff" fill="none"></rect><rect x="140" y="-60" height="40" width="40" stroke="#fff" fill="#fff"></rect><rect x="180" y="-60" height="40" width="40" stroke="#fff" fill="none"></rect><rect x="220" y="-60" height="40" width="40" stroke="#fff" fill="#fff"></rect><rect x="260" y="-60" height="40" width="40" stroke="#fff" fill="none"></rect><rect x="300" y="-60" height="40" width="40" stroke="#fff" fill="#fff"></rect><rect x="340" y="-60" height="40" width="40" stroke="#fff" fill="none"></rect><rect x="60" y="-20" height="40" width="40" stroke="#fff" fill="none"></rect><rect x="100" y="-20" height="40" width="40" stroke="#fff" fill="#fff"></rect><rect x="140" y="-20" height="40" width="40" stroke="#fff" fill="none"></rect><rect x="180" y="-20" height="40" width="40" stroke="#fff" fill="#fff"></rect><rect x="220" y="-20" height="40" width="40" stroke="#fff" fill="none"></rect><rect x="260" y="-20" height="40" width="40" stroke="#fff" fill="#fff"></rect><rect x="300" y="-20" height="40" width="40" stroke="#fff" fill="none"></rect><rect x="340" y="-20" height="40" width="40" stroke="#fff" fill="#fff"></rect><rect x="60" y="20" height="40" width="40" stroke="#fff" fill="#fff"></rect><rect x="100" y="20" height="40" width="40" stroke="#fff" fill="none"></rect><rect x="140" y="20" height="40" width="40" stroke="#fff" fill="#fff"></rect><rect x="180" y="20" height="40" width="40" stroke="#fff" fill="none"></rect><rect x="220" y="20" height="40" width="40" stroke="#fff" fill="#fff"></rect><rect x="260" y="20" height="40" width="40" stroke="#fff" fill="none"></rect><rect x="300" y="20" height="40" width="40" stroke="#fff" fill="#fff"></rect><rect x="340" y="20" height="40" width="40" stroke="#fff" fill="none"></rect></g><g class="bottom"><rect y="60" x="-60" height="40" width="40" stroke="#fff" fill="#fff"></rect><rect y="100" x="-60" height="40" width="40" stroke="#fff" fill="none"></rect><rect y="140" x="-60" height="40" width="40" stroke="#fff" fill="#fff"></rect><rect y="180" x="-60" height="40" width="40" stroke="#fff" fill="none"></rect><rect y="220" x="-60" height="40" width="40" stroke="#fff" fill="#fff"></rect><rect y="260" x="-60" height="40" width="40" stroke="#fff" fill="none"></rect><rect y="300" x="-60" height="40" width="40" stroke="#fff" fill="#fff"></rect><rect y="340" x="-60" height="40" width="40" stroke="#fff" fill="none"></rect><rect y="60" x="-20" height="40" width="40" stroke="#fff" fill="none"></rect><rect y="100" x="-20" height="40" width="40" stroke="#fff" fill="#fff"></rect><rect y="140" x="-20" height="40" width="40" stroke="#fff" fill="none"></rect><rect y="180" x="-20" height="40" width="40" stroke="#fff" fill="#fff"></rect><rect y="220" x="-20" height="40" width="40" stroke="#fff" fill="none"></rect><rect y="260" x="-20" height="40" width="40" stroke="#fff" fill="#fff"></rect><rect y="300" x="-20" height="40" width="40" stroke="#fff" fill="none"></rect><rect y="340" x="-20" height="40" width="40" stroke="#fff" fill="#fff"></rect><rect y="60" x="20" height="40" width="40" stroke="#fff" fill="#fff"></rect><rect y="100" x="20" height="40" width="40" stroke="#fff" fill="none"></rect><rect y="140" x="20" height="40" width="40" stroke="#fff" fill="#fff"></rect><rect y="180" x="20" height="40" width="40" stroke="#fff" fill="none"></rect><rect y="220" x="20" height="40" width="40" stroke="#fff" fill="#fff"></rect><rect y="260" x="20" height="40" width="40" stroke="#fff" fill="none"></rect><rect y="300" x="20" height="40" width="40" stroke="#fff" fill="#fff"></rect><rect y="340" x="20" height="40" width="40" stroke="#fff" fill="none"></rect></g><g class="left"><rect x="-100" y="-60" height="40" width="40" stroke="#fff" fill="#fff"></rect><rect x="-140" y="-60" height="40" width="40" stroke="#fff" fill="none"></rect><rect x="-180" y="-60" height="40" width="40" stroke="#fff" fill="#fff"></rect><rect x="-220" y="-60" height="40" width="40" stroke="#fff" fill="none"></rect><rect x="-260" y="-60" height="40" width="40" stroke="#fff" fill="#fff"></rect><rect x="-300" y="-60" height="40" width="40" stroke="#fff" fill="none"></rect><rect x="-340" y="-60" height="40" width="40" stroke="#fff" fill="#fff"></rect><rect x="-380" y="-60" height="40" width="40" stroke="#fff" fill="none"></rect><rect x="-100" y="-20" height="40" width="40" stroke="#fff" fill="none"></rect><rect x="-140" y="-20" height="40" width="40" stroke="#fff" fill="#fff"></rect><rect x="-180" y="-20" height="40" width="40" stroke="#fff" fill="none"></rect><rect x="-220" y="-20" height="40" width="40" stroke="#fff" fill="#fff"></rect><rect x="-260" y="-20" height="40" width="40" stroke="#fff" fill="none"></rect><rect x="-300" y="-20" height="40" width="40" stroke="#fff" fill="#fff"></rect><rect x="-340" y="-20" height="40" width="40" stroke="#fff" fill="none"></rect><rect x="-380" y="-20" height="40" width="40" stroke="#fff" fill="#fff"></rect><rect x="-100" y="20" height="40" width="40" stroke="#fff" fill="#fff"></rect><rect x="-140" y="20" height="40" width="40" stroke="#fff" fill="none"></rect><rect x="-180" y="20" height="40" width="40" stroke="#fff" fill="#fff"></rect><rect x="-220" y="20" height="40" width="40" stroke="#fff" fill="none"></rect><rect x="-260" y="20" height="40" width="40" stroke="#fff" fill="#fff"></rect><rect x="-300" y="20" height="40" width="40" stroke="#fff" fill="none"></rect><rect x="-340" y="20" height="40" width="40" stroke="#fff" fill="#fff"></rect><rect x="-380" y="20" height="40" width="40" stroke="#fff" fill="none"></rect></g><g class="top"><rect y="-100" x="-60" height="40" width="40" stroke="#fff" fill="#fff"></rect><rect y="-140" x="-60" height="40" width="40" stroke="#fff" fill="none"></rect><rect y="-180" x="-60" height="40" width="40" stroke="#fff" fill="#fff"></rect><rect y="-220" x="-60" height="40" width="40" stroke="#fff" fill="none"></rect><rect y="-260" x="-60" height="40" width="40" stroke="#fff" fill="#fff"></rect><rect y="-300" x="-60" height="40" width="40" stroke="#fff" fill="none"></rect><rect y="-340" x="-60" height="40" width="40" stroke="#fff" fill="#fff"></rect><rect y="-380" x="-60" height="40" width="40" stroke="#fff" fill="none"></rect><rect y="-100" x="-20" height="40" width="40" stroke="#fff" fill="none"></rect><rect y="-140" x="-20" height="40" width="40" stroke="#fff" fill="#fff"></rect><rect y="-180" x="-20" height="40" width="40" stroke="#fff" fill="none"></rect><rect y="-220" x="-20" height="40" width="40" stroke="#fff" fill="#fff"></rect><rect y="-260" x="-20" height="40" width="40" stroke="#fff" fill="none"></rect><rect y="-300" x="-20" height="40" width="40" stroke="#fff" fill="#fff"></rect><rect y="-340" x="-20" height="40" width="40" stroke="#fff" fill="none"></rect><rect y="-380" x="-20" height="40" width="40" stroke="#fff" fill="#fff"></rect><rect y="-100" x="20" height="40" width="40" stroke="#fff" fill="#fff"></rect><rect y="-140" x="20" height="40" width="40" stroke="#fff" fill="none"></rect><rect y="-180" x="20" height="40" width="40" stroke="#fff" fill="#fff"></rect><rect y="-220" x="20" height="40" width="40" stroke="#fff" fill="none"></rect><rect y="-260" x="20" height="40" width="40" stroke="#fff" fill="#fff"></rect><rect y="-300" x="20" height="40" width="40" stroke="#fff" fill="none"></rect><rect y="-340" x="20" height="40" width="40" stroke="#fff" fill="#fff"></rect><rect y="-380" x="20" height="40" width="40" stroke="#fff" fill="none"></rect></g></svg>
