<?xml version="1.0" encoding="UTF-8" standalone="no"?>
<!-- Created with Inkscape (http://www.inkscape.org/) -->

<svg
   xmlns:dc="http://purl.org/dc/elements/1.1/"
   xmlns:cc="http://creativecommons.org/ns#"
   xmlns:rdf="http://www.w3.org/1999/02/22-rdf-syntax-ns#"
   xmlns:svg="http://www.w3.org/2000/svg"
   xmlns="http://www.w3.org/2000/svg"
   xmlns:sodipodi="http://sodipodi.sourceforge.net/DTD/sodipodi-0.dtd"
   xmlns:inkscape="http://www.inkscape.org/namespaces/inkscape"
   width="149.84445mm"
   height="154.28445mm"
   viewBox="0 0 149.84445 154.28445"
   version="1.1"
   id="svg8"
   sodipodi:docname="wunderwald.svg"
   inkscape:version="0.92.4 (5da689c313, 2019-01-14)">
  <defs
     id="defs2" />
  <sodipodi:namedview
     id="base"
     pagecolor="#ffffff"
     bordercolor="#666666"
     borderopacity="1.0"
     inkscape:pageopacity="0.0"
     inkscape:pageshadow="2"
     inkscape:zoom="2"
     inkscape:cx="258.40758"
     inkscape:cy="224.0663"
     inkscape:document-units="mm"
     inkscape:current-layer="layer1"
     showgrid="false"
     showguides="true"
     inkscape:guide-bbox="true"
     inkscape:snap-to-guides="true"
     inkscape:snap-object-midpoints="true"
     inkscape:snap-center="true"
     inkscape:window-width="2236"
     inkscape:window-height="2066"
     inkscape:window-x="-11"
     inkscape:window-y="0"
     inkscape:window-maximized="0"
     fit-margin-top="0"
     fit-margin-left="0"
     fit-margin-right="0"
     fit-margin-bottom="0" />
  <metadata
     id="metadata5">
    <rdf:RDF>
      <cc:Work
         rdf:about="">
        <dc:format>image/svg+xml</dc:format>
        <dc:type
           rdf:resource="http://purl.org/dc/dcmitype/StillImage" />
        <dc:title></dc:title>
      </cc:Work>
    </rdf:RDF>
  </metadata>
  <g
     inkscape:label="Ebene 1"
     inkscape:groupmode="layer"
     id="layer1"
     transform="translate(-10.828531,-11.56073)">
    <path
       style="fill:#8c6644;fill-opacity:1;stroke-width:0.84056902"
       d="M 133.10156 520.60156 L 133.10156 525.15234 L 133.10156 557.51562 L 156.2168 557.51562 L 179.33203 557.51562 L 179.33203 525.15234 L 179.33203 520.99414 C 163.92169 520.88468 148.51149 520.75344 133.10156 520.60156 z "
       transform="matrix(0.26458333,0,0,0.26458333,10.828531,11.56073)"
       id="path884" />
    <path
       style="fill:#36cc6b;fill-opacity:1;stroke:#fffffb;stroke-width:0;stroke-linecap:butt;stroke-linejoin:miter;stroke-miterlimit:80;stroke-dasharray:none;stroke-opacity:1;paint-order:stroke fill markers"
       d="M 155.79297 186.57227 C 154.90751 187.57766 80.146484 315.00195 80.146484 315.00195 C 80.146484 315.00195 85.062246 315.43164 91.072266 315.43164 C 97.082323 315.43164 102 315.67629 102 315.97461 C 102 316.27296 90.275052 334.26253 75.943359 355.95312 C 61.611674 377.64372 49.884766 395.75781 49.884766 395.75781 C 49.884766 395.75781 59.760452 396.125 71.830078 396.125 C 91.383483 396.125 93.720643 396.26886 93.271484 397.43945 C 92.99423 398.16199 79.714855 419.71386 63.761719 445.33203 C 47.808548 470.95016 34.755859 492.35156 34.755859 492.35156 C 34.755859 492.35156 56.882407 492.79102 83.927734 492.79102 L 128.86914 492.79102 C 146.63003 463.89665 164.52835 435.08901 182.36133 406.25391 C 164.7086 406.17578 147.06802 405.54487 129.42578 404.99219 C 148.01357 376.29374 171.44192 338.86407 190.24414 310.30664 C 184.42012 309.64947 175.80082 309.34811 165.58008 308.29102 C 175.88346 290.8005 186.43828 273.12078 197.07227 255.38086 C 177.0392 221.55257 156.05268 186.27737 155.79297 186.57227 z "
       transform="matrix(0.26458333,0,0,0.26458333,10.828531,11.56073)"
       id="path886" />
    <path
       style="fill:#8c6644;fill-opacity:1;stroke-width:0.84056902"
       d="M 433.33398 520.51367 C 417.92365 520.69771 402.51239 520.8516 387.10156 520.97461 L 387.10156 525.15234 L 387.10156 557.51562 L 410.2168 557.51562 L 433.33398 557.51562 L 433.33398 525.15234 L 433.33398 520.51367 z "
       transform="matrix(0.26458333,0,0,0.26458333,10.828531,11.56073)"
       id="path880" />
    <path
       style="fill:#36cc6b;fill-opacity:1;stroke:#fffffb;stroke-width:0;stroke-linecap:butt;stroke-linejoin:miter;stroke-miterlimit:80;stroke-dasharray:none;stroke-opacity:1;paint-order:stroke fill markers"
       d="M 409.79297 186.57227 C 409.31942 187.10995 389.02424 221.58272 369.02734 255.60742 C 383.31835 279.41653 400.55664 308.13867 400.55664 308.13867 C 400.55664 308.13867 385.46475 309.10541 375.2793 309.94922 C 395.15784 341.17659 416.74089 373.23684 437.05078 404.94727 C 419.45077 405.52262 401.85159 406.16773 384.24023 406.25391 C 402.0979 435.07895 419.97432 463.89114 437.70898 492.79102 L 482.50586 492.79102 C 509.55118 492.79102 531.67969 492.28906 531.67969 492.28906 C 531.67969 492.28906 518.60109 470.7848 502.61523 445.11523 C 486.62934 419.44563 473.35 397.92242 473.10547 397.28516 C 472.73466 396.31888 476.30469 396.12695 494.60547 396.12695 C 506.67513 396.12695 516.54883 395.74805 516.54883 395.74805 C 516.54883 395.74805 504.82389 377.6029 490.49219 355.88672 C 476.16048 334.17053 464.43359 316.18319 464.43359 315.91602 C 464.43359 315.64902 469.35124 315.43164 475.36133 315.43164 C 481.37142 315.43164 486.28906 314.97656 486.28906 314.97656 C 486.28906 314.97656 410.28559 186.0129 409.79297 186.57227 z "
       transform="matrix(0.26458333,0,0,0.26458333,10.828531,11.56073)"
       id="path882" />
    <path
       inkscape:connector-curvature="0"
       style="fill:#8c6644;fill-opacity:1;stroke-width:0.26458332"
       d="m 93.050935,145.47227 v 10.18645 10.18646 h -7.276041 -7.276041 v -10.18646 -10.18645"
       id="path860" />
    <path
       style="fill:#b0e046;fill-opacity:1;stroke:#fffffb;stroke-width:0;stroke-linecap:butt;stroke-linejoin:miter;stroke-miterlimit:80;stroke-dasharray:none;stroke-opacity:1;paint-order:stroke fill markers"
       d="m 63.020729,145.47227 c -8.512969,0 -15.478125,-0.13868 -15.478125,-0.13868 0,0 4.108522,-6.73629 9.130046,-14.80003 5.021524,-8.06375 9.201448,-14.84743 9.288724,-15.07486 0.141388,-0.36846 -0.594014,-0.41352 -6.748796,-0.41352 -3.799112,0 -6.907474,-0.11566 -6.907474,-0.11566 0,0 3.690937,-5.70179 8.202083,-12.52927 4.511146,-6.827481 8.202083,-12.490431 8.202083,-12.584341 0,-0.0939 -1.547813,-0.17073 -3.439583,-0.17073 -1.891771,0 -3.439583,-0.13499 -3.439583,-0.13499 L 85.641245,49.0847 109.71969,89.502329 c 0,0 -1.54781,0.14285 -3.43959,0.14285 -1.89177,0 -3.43958,0.0688 -3.43958,0.15284 0,0.0841 3.69094,5.74554 8.20208,12.581081 4.51115,6.83553 8.20209,12.54716 8.20209,12.54716 0,0 -3.10836,0.11892 -6.90748,0.11892 -5.76048,0 -6.88423,0.0606 -6.76752,0.36471 0.077,0.20059 4.2569,6.97556 9.28873,15.0555 5.03182,8.07994 9.14877,14.84884 9.14877,14.84884 0,0 -6.96516,0.15804 -15.47813,0.15804 H 85.774894 Z"
       id="path866"
       inkscape:connector-curvature="0"
       sodipodi:nodetypes="scscscssscccssccscscscs" />
    <g
       id="g1133"
       transform="translate(-28.0633,156.0854)">
      <path
         transform="scale(0.26458333)"
         id="path1086"
         d="m 155.81191,-288.13867 c 101.49996,-255.41913 480.52887,-212.2204 551.39816,3.0377"
         style="fill:none;fill-opacity:1;stroke:#ff5a4e;stroke-width:11.32688904;stroke-linecap:butt;stroke-linejoin:miter;stroke-miterlimit:4;stroke-dasharray:none;stroke-opacity:1"
         inkscape:connector-curvature="0" />
      <path
         transform="scale(0.26458333)"
         id="path1099"
         d="m 165.72158,-285.14911 c 98.68006,-244.59613 462.1324,-203.36155 531.63771,2.97296"
         style="fill:none;fill-opacity:1;stroke:#ffc83c;stroke-width:11.31014442;stroke-linecap:butt;stroke-linejoin:miter;stroke-miterlimit:4;stroke-dasharray:none;stroke-opacity:1"
         inkscape:connector-curvature="0" />
      <path
         transform="scale(0.26458333)"
         id="path1089"
         d="m 175.7113,-282.12663 c 96.07024,-233.23229 443.29195,-194.08919 511.74884,2.92234"
         style="fill:none;fill-opacity:1;stroke:#82be00;stroke-width:11.17894554;stroke-linecap:butt;stroke-linejoin:miter;stroke-miterlimit:4;stroke-dasharray:none;stroke-opacity:1"
         inkscape:connector-curvature="0" />
      <path
         transform="scale(0.26458333)"
         id="path1093"
         d="m 186.15916,-279.01113 c 90.70561,-226.64501 427.36655,-188.23855 490.68799,3.00795"
         style="fill:none;fill-opacity:1;stroke:#00d7f0;stroke-width:10.67544556;stroke-linecap:butt;stroke-linejoin:miter;stroke-miterlimit:4;stroke-dasharray:none;stroke-opacity:1"
         inkscape:connector-curvature="0" />
      <path
         transform="scale(0.26458333)"
         id="path1096"
         d="m 195.65509,-276.23135 c 85.84476,-220.65371 412.95246,-182.88765 471.55458,3.1472"
         style="fill:none;fill-opacity:1;stroke:#6c91e8;stroke-width:10.22041893;stroke-linecap:butt;stroke-linejoin:miter;stroke-miterlimit:4;stroke-dasharray:none;stroke-opacity:1"
         inkscape:connector-curvature="0" />
    </g>
    <path
       style="fill:#000000;stroke-width:0.26458332"
       d=""
       id="path1159"
       inkscape:connector-curvature="0" />
    <path
       style="fill:#000000;stroke-width:0.26458332"
       d=""
       id="path1157"
       inkscape:connector-curvature="0" />
    <path
       inkscape:connector-curvature="0"
       id="path1176"
       d="m 35.841519,77.325386 c -0.03075,-0.03075 -2.030699,-2.99418 -4.444348,-6.585422 -2.413647,-3.591244 -4.415512,-6.556592 -4.448591,-6.589671 -0.03309,-0.03309 -3.673626,0.117262 -8.090094,0.334096 -4.416475,0.216827 -8.029949,0.362691 -8.029955,0.324132 2.1e-5,-0.06719 9.614571,-12.604855 9.8497,-12.844241 0.07878,-0.08019 -0.713731,-2.480269 -2.54778,-7.715903 -1.464162,-4.179725 -2.645404,-7.616017 -2.624988,-7.636207 0.02042,-0.02018 3.456853,1.161106 7.636513,2.625091 5.231175,1.832299 7.635638,2.626206 7.715696,2.547578 0.237694,-0.233451 12.776699,-9.849602 12.843421,-9.849602 0.03819,1.7e-5 -0.108257,3.612919 -0.325382,8.028702 -0.217119,4.415792 -0.364694,8.058779 -0.327945,8.095528 0.03677,0.03677 3.01319,2.045451 6.614308,4.463773 3.601114,2.418323 6.547487,4.429803 6.547482,4.469954 3e-6,0.04012 -3.478697,1.119931 -7.730441,2.399509 -4.251749,1.279576 -7.76117,2.357226 -7.79872,2.394776 -0.03755,0.03755 -1.099217,3.49446 -2.359266,7.68203 -1.260042,4.187567 -2.320853,7.680814 -2.357355,7.762766 -0.03649,0.08197 -0.0915,0.123872 -0.12225,0.09311 z"
       style="fill:#ffdf00;fill-opacity:1;stroke:none;stroke-width:0.10441181" />
    <path
       inkscape:connector-curvature="0"
       id="path1180"
       d="m 115.28285,56.951523 c 0.0307,-0.03076 2.99418,-2.030703 6.58542,-4.444347 3.59124,-2.413652 6.55659,-4.415513 6.58967,-4.448592 0.0331,-0.03309 -0.11726,-3.673625 -0.33409,-8.090093 -0.21683,-4.416478 -0.3627,-8.029949 -0.32413,-8.029954 0.0672,0 12.60485,9.614565 12.84424,9.849699 0.0801,0.07876 2.48027,-0.713732 7.71589,-2.547784 4.17973,-1.464163 7.61602,-2.645405 7.63622,-2.624985 0.0202,0.02043 -1.16111,3.456855 -2.6251,7.636513 -1.8323,5.231175 -2.62621,7.635635 -2.54757,7.715696 0.23344,0.237692 9.84959,12.776696 9.84959,12.843419 1.2e-4,0.03821 -3.61291,-0.108258 -8.02869,-0.325381 -4.41579,-0.217117 -8.05878,-0.36469 -8.09553,-0.327944 -0.0368,0.03677 -2.04545,3.013189 -4.46378,6.614304 -2.41832,3.601115 -4.4298,6.547488 -4.46995,6.547486 -0.0402,-2.6e-5 -1.11993,-3.478697 -2.39951,-7.730443 -1.27958,-4.25175 -2.35723,-7.761173 -2.39477,-7.798719 -0.0376,-0.03755 -3.49446,-1.099218 -7.68204,-2.359268 -4.18756,-1.260041 -7.6808,-2.32085 -7.76276,-2.357351 -0.082,-0.03653 -0.12387,-0.0915 -0.0931,-0.122257 z"
       style="fill:#ffdf00;fill-opacity:1;stroke:none;stroke-width:0.10441181" />
    <path
       style="fill:#ffdf00;fill-opacity:1;stroke:none;stroke-width:0.10441181"
       d="m 71.343119,54.729084 c 0,-0.04348 0.681284,-3.553126 1.513968,-7.799225 0.832687,-4.246099 1.513972,-7.758449 1.513972,-7.805229 0,-0.0468 -2.680562,-2.51473 -5.956801,-5.48432 -3.27624,-2.9696 -5.934493,-5.42157 -5.907232,-5.44884 0.04753,-0.0475 15.711507,-2.11445 16.047039,-2.11746 0.112406,-0.001 1.24913,-2.2585 3.654415,-7.25752 1.920193,-3.99083 3.514754,-7.25592 3.543467,-7.25576 0.02871,1.7e-4 1.623339,3.26539 3.543611,7.25605 2.403368,4.99463 3.542203,7.25622 3.654411,7.25723 0.333149,0.003 15.999211,2.06977 16.046391,2.11695 0.027,0.027 -2.63127,2.47817 -5.90723,5.44707 -3.27597,2.96891 -5.956295,5.44054 -5.956295,5.49251 0,0.052 0.684295,3.577 1.520657,7.833387 0.836358,4.256384 1.497428,7.762115 1.469028,7.790504 -0.0284,0.02837 -3.251714,-1.6679 -7.16295,-3.769539 -3.911237,-2.101643 -7.154786,-3.821165 -7.207889,-3.821165 -0.0531,0 -3.248221,1.693693 -7.100269,3.763762 -3.852041,2.070073 -7.072247,3.790064 -7.156007,3.822203 -0.08376,0.03216 -0.152286,0.02289 -0.152286,-0.0206 z"
       id="path1172"
       inkscape:connector-curvature="0" />
  </g>
</svg>
