<?xml version="1.0" encoding="UTF-8" standalone="no"?>
<svg
   xmlns:dc="http://purl.org/dc/elements/1.1/"
   xmlns:cc="http://creativecommons.org/ns#"
   xmlns:rdf="http://www.w3.org/1999/02/22-rdf-syntax-ns#"
   xmlns:svg="http://www.w3.org/2000/svg"
   xmlns="http://www.w3.org/2000/svg"
   xmlns:sodipodi="http://sodipodi.sourceforge.net/DTD/sodipodi-0.dtd"
   xmlns:inkscape="http://www.inkscape.org/namespaces/inkscape"
   viewBox="0 0 673.60456 673.60455"
   version="1.1"
   id="svg538"
   sodipodi:docname="halma6-with-bg.svg"
   width="673.60455"
   height="673.60455"
   inkscape:version="0.92.4 (5da689c313, 2019-01-14)">
  <metadata
     id="metadata544">
    <rdf:RDF>
      <cc:Work
         rdf:about="">
        <dc:format>image/svg+xml</dc:format>
        <dc:type
           rdf:resource="http://purl.org/dc/dcmitype/StillImage" />
        <dc:title></dc:title>
      </cc:Work>
    </rdf:RDF>
  </metadata>
  <defs
     id="defs542" />
  <sodipodi:namedview
     pagecolor="#ffffff"
     bordercolor="#f06666"
     borderopacity="1"
     objecttolerance="10"
     gridtolerance="10"
     guidetolerance="10"
     inkscape:pageopacity="0"
     inkscape:pageshadow="2"
     inkscape:window-width="1578"
     inkscape:window-height="1377"
     id="namedview540"
     showgrid="false"
     inkscape:pagecheckerboard="false"
     fit-margin-top="0"
     fit-margin-left="0"
     fit-margin-right="0"
     fit-margin-bottom="0"
     inkscape:zoom="0.53831355"
     inkscape:cx="353.37327"
     inkscape:cy="561.06216"
     inkscape:window-x="0"
     inkscape:window-y="0"
     inkscape:window-maximized="0"
     inkscape:current-layer="svg538" />
  <rect
     style="fill:#292929;fill-opacity:1;stroke:#0b4f6c;stroke-width:0.80531102;stroke-linecap:round;stroke-linejoin:round;stroke-miterlimit:4;stroke-dasharray:none;stroke-opacity:1"
     id="rect5056"
     width="672.79926"
     height="672.79926"
     x="0.40265551"
     y="0.40265551" />
  <g
     id="g26"
     transform="translate(80.575624,35.519712)">
    <path
       d="M 20,160 H 520 L 270,593.0127 Z"
       id="path2"
       inkscape:connector-curvature="0"
       style="fill:none;stroke:#999999" />
    <path
       d="M 61.666667,160 40.833333,196.08439 H 499.16667 L 478.33333,160"
       id="path4"
       inkscape:connector-curvature="0"
       style="fill:none;stroke:#999999" />
    <path
       d="M 103.33333,160 61.666667,232.16878 H 478.33333 L 436.66667,160"
       id="path6"
       inkscape:connector-curvature="0"
       style="fill:none;stroke:#999999" />
    <path
       d="M 145,160 82.5,268.25318 h 375 L 395,160"
       id="path8"
       inkscape:connector-curvature="0"
       style="fill:none;stroke:#999999" />
    <path
       d="M 186.66667,160 103.33333,304.33757 H 436.66667 L 353.33333,160"
       id="path10"
       inkscape:connector-curvature="0"
       style="fill:none;stroke:#999999" />
    <path
       d="M 228.33333,160 124.16667,340.42196 H 415.83333 L 311.66667,160"
       id="path12"
       inkscape:connector-curvature="0"
       style="fill:none;stroke:#999999" />
    <path
       d="M 270,160 145,376.50635 H 395 L 270,160"
       id="path14"
       inkscape:connector-curvature="0"
       style="fill:none;stroke:#999999" />
    <path
       d="M 311.66667,160 165.83333,412.59074 H 374.16667 L 228.33333,160"
       id="path16"
       inkscape:connector-curvature="0"
       style="fill:none;stroke:#999999" />
    <path
       d="M 353.33333,160 186.66667,448.67513 H 353.33333 L 186.66667,160"
       id="path18"
       inkscape:connector-curvature="0"
       style="fill:none;stroke:#999999" />
    <path
       d="M 395,160 207.5,484.75953 h 125 L 145,160"
       id="path20"
       inkscape:connector-curvature="0"
       style="fill:none;stroke:#999999" />
    <path
       d="M 436.66667,160 228.33333,520.84392 h 83.33334 L 103.33333,160"
       id="path22"
       inkscape:connector-curvature="0"
       style="fill:none;stroke:#999999" />
    <path
       d="M 478.33333,160 249.16667,556.92831 h 41.66666 L 61.666667,160"
       id="path24"
       inkscape:connector-curvature="0"
       style="fill:none;stroke:#999999" />
  </g>
  <g
     transform="rotate(180,310.2878,322.09742)"
     id="g52">
    <path
       d="M 20,160 H 520 L 270,593.0127 Z"
       id="path28"
       inkscape:connector-curvature="0"
       style="fill:none;stroke:#999999" />
    <path
       d="M 61.666667,160 40.833333,196.08439 H 499.16667 L 478.33333,160"
       id="path30"
       inkscape:connector-curvature="0"
       style="fill:none;stroke:#999999" />
    <path
       d="M 103.33333,160 61.666667,232.16878 H 478.33333 L 436.66667,160"
       id="path32"
       inkscape:connector-curvature="0"
       style="fill:none;stroke:#999999" />
    <path
       d="M 145,160 82.5,268.25318 h 375 L 395,160"
       id="path34"
       inkscape:connector-curvature="0"
       style="fill:none;stroke:#999999" />
    <path
       d="M 186.66667,160 103.33333,304.33757 H 436.66667 L 353.33333,160"
       id="path36"
       inkscape:connector-curvature="0"
       style="fill:none;stroke:#999999" />
    <path
       d="M 228.33333,160 124.16667,340.42196 H 415.83333 L 311.66667,160"
       id="path38"
       inkscape:connector-curvature="0"
       style="fill:none;stroke:#999999" />
    <path
       d="M 270,160 145,376.50635 H 395 L 270,160"
       id="path40"
       inkscape:connector-curvature="0"
       style="fill:none;stroke:#999999" />
    <path
       d="M 311.66667,160 165.83333,412.59074 H 374.16667 L 228.33333,160"
       id="path42"
       inkscape:connector-curvature="0"
       style="fill:none;stroke:#999999" />
    <path
       d="M 353.33333,160 186.66667,448.67513 H 353.33333 L 186.66667,160"
       id="path44"
       inkscape:connector-curvature="0"
       style="fill:none;stroke:#999999" />
    <path
       d="M 395,160 207.5,484.75953 h 125 L 145,160"
       id="path46"
       inkscape:connector-curvature="0"
       style="fill:none;stroke:#999999" />
    <path
       d="M 436.66667,160 228.33333,520.84392 h 83.33334 L 103.33333,160"
       id="path48"
       inkscape:connector-curvature="0"
       style="fill:none;stroke:#999999" />
    <path
       d="M 478.33333,160 249.16667,556.92831 h 41.66666 L 61.666667,160"
       id="path50"
       inkscape:connector-curvature="0"
       style="fill:none;stroke:#999999" />
  </g>
  <circle
     r="12"
     cx="350.57562"
     cy="51.519714"
     stroke=""
     id="circle54"
     style="fill:#00bcd4" />
  <circle
     r="20"
     style="opacity:0;fill:#000000"
     cx="350.57562"
     cy="51.519714"
     id="circle56" />
  <circle
     r="12"
     cx="329.74228"
     cy="87.604111"
     stroke=""
     id="circle58"
     style="fill:#00bcd4" />
  <circle
     r="20"
     style="opacity:0;fill:#000000"
     cx="329.74228"
     cy="87.604111"
     id="circle60" />
  <circle
     r="12"
     cx="371.40897"
     cy="87.604111"
     stroke=""
     id="circle62"
     style="fill:#00bcd4" />
  <circle
     r="20"
     style="opacity:0;fill:#000000"
     cx="371.40897"
     cy="87.604111"
     id="circle64" />
  <circle
     r="12"
     cx="308.90894"
     cy="123.68851"
     stroke=""
     id="circle66"
     style="fill:#00bcd4" />
  <circle
     r="20"
     style="opacity:0;fill:#000000"
     cx="308.90894"
     cy="123.68851"
     id="circle68" />
  <circle
     r="12"
     cx="350.57562"
     cy="123.68851"
     stroke=""
     id="circle70"
     style="fill:#00bcd4" />
  <circle
     r="20"
     style="opacity:0;fill:#000000"
     cx="350.57562"
     cy="123.68851"
     id="circle72" />
  <circle
     r="12"
     cx="392.24231"
     cy="123.68851"
     stroke=""
     id="circle74"
     style="fill:#00bcd4" />
  <circle
     r="20"
     style="opacity:0;fill:#000000"
     cx="392.24231"
     cy="123.68851"
     id="circle76" />
  <circle
     r="12"
     cx="288.07562"
     cy="159.77289"
     stroke=""
     id="circle78"
     style="fill:#00bcd4" />
  <circle
     r="20"
     style="opacity:0;fill:#000000"
     cx="288.07562"
     cy="159.77289"
     id="circle80" />
  <circle
     r="12"
     cx="329.74228"
     cy="159.77289"
     stroke=""
     id="circle82"
     style="fill:#00bcd4" />
  <circle
     r="20"
     style="opacity:0;fill:#000000"
     cx="329.74228"
     cy="159.77289"
     id="circle84" />
  <circle
     r="12"
     cx="371.40897"
     cy="159.77289"
     stroke=""
     id="circle86"
     style="fill:#00bcd4" />
  <circle
     r="20"
     style="opacity:0;fill:#000000"
     cx="371.40897"
     cy="159.77289"
     id="circle88" />
  <circle
     r="12"
     cx="413.07562"
     cy="159.77289"
     stroke=""
     id="circle90"
     style="fill:#00bcd4" />
  <circle
     r="20"
     style="opacity:0;fill:#000000"
     cx="413.07562"
     cy="159.77289"
     id="circle92" />
  <circle
     r="12"
     cx="100.57561"
     cy="195.85727"
     stroke=""
     id="circle94"
     style="fill:#ffeb3b" />
  <circle
     r="20"
     style="opacity:0;fill:#000000"
     cx="100.57561"
     cy="195.85727"
     id="circle96" />
  <circle
     r="12"
     cx="142.24226"
     cy="195.85727"
     stroke=""
     id="circle98"
     style="fill:#ffeb3b" />
  <circle
     r="20"
     style="opacity:0;fill:#000000"
     cx="142.24226"
     cy="195.85727"
     id="circle100" />
  <circle
     r="12"
     cx="183.90895"
     cy="195.85727"
     stroke=""
     id="circle102"
     style="fill:#ffeb3b" />
  <circle
     r="20"
     style="opacity:0;fill:#000000"
     cx="183.90895"
     cy="195.85727"
     id="circle104" />
  <circle
     r="12"
     cx="225.57561"
     cy="195.85727"
     stroke=""
     id="circle106"
     style="fill:#ffeb3b" />
  <circle
     r="20"
     style="opacity:0;fill:#000000"
     cx="225.57561"
     cy="195.85727"
     id="circle108" />
  <circle
     r="3"
     cx="267.24228"
     cy="195.85727"
     id="circle110"
     style="fill:#e5e5e5" />
  <circle
     r="20"
     style="opacity:0;fill:#000000"
     cx="267.24228"
     cy="195.85727"
     id="circle112" />
  <circle
     r="3"
     cx="308.90894"
     cy="195.85727"
     id="circle114"
     style="fill:#e5e5e5" />
  <circle
     r="20"
     style="opacity:0;fill:#000000"
     cx="308.90894"
     cy="195.85727"
     id="circle116" />
  <circle
     r="3"
     cx="350.57562"
     cy="195.85727"
     id="circle118"
     style="fill:#e5e5e5" />
  <circle
     r="20"
     style="opacity:0;fill:#000000"
     cx="350.57562"
     cy="195.85727"
     id="circle120" />
  <circle
     r="3"
     cx="392.24231"
     cy="195.85727"
     id="circle122"
     style="fill:#e5e5e5" />
  <circle
     r="20"
     style="opacity:0;fill:#000000"
     cx="392.24231"
     cy="195.85727"
     id="circle124" />
  <circle
     r="3"
     cx="433.909"
     cy="195.85727"
     id="circle126"
     style="fill:#e5e5e5" />
  <circle
     r="20"
     style="opacity:0;fill:#000000"
     cx="433.909"
     cy="195.85727"
     id="circle128" />
  <circle
     r="12"
     cx="475.57562"
     cy="195.85727"
     stroke=""
     id="circle130"
     style="fill:#ef5350" />
  <circle
     r="20"
     style="opacity:0;fill:#000000"
     cx="475.57562"
     cy="195.85727"
     id="circle132" />
  <circle
     r="12"
     cx="517.24231"
     cy="195.85727"
     stroke=""
     id="circle134"
     style="fill:#ef5350" />
  <circle
     r="20"
     style="opacity:0;fill:#000000"
     cx="517.24231"
     cy="195.85727"
     id="circle136" />
  <circle
     r="12"
     cx="558.90894"
     cy="195.85727"
     stroke=""
     id="circle138"
     style="fill:#ef5350" />
  <circle
     r="20"
     style="opacity:0;fill:#000000"
     cx="558.90894"
     cy="195.85727"
     id="circle140" />
  <circle
     r="12"
     cx="600.57562"
     cy="195.85727"
     stroke=""
     id="circle142"
     style="fill:#ef5350" />
  <circle
     r="20"
     style="opacity:0;fill:#000000"
     cx="600.57562"
     cy="195.85727"
     id="circle144" />
  <circle
     r="12"
     cx="121.40896"
     cy="231.94168"
     stroke=""
     id="circle146"
     style="fill:#ffeb3b" />
  <circle
     r="20"
     style="opacity:0;fill:#000000"
     cx="121.40896"
     cy="231.94168"
     id="circle148" />
  <circle
     r="12"
     cx="163.07561"
     cy="231.94168"
     stroke=""
     id="circle150"
     style="fill:#ffeb3b" />
  <circle
     r="20"
     style="opacity:0;fill:#000000"
     cx="163.07561"
     cy="231.94168"
     id="circle152" />
  <circle
     r="12"
     cx="204.74226"
     cy="231.94168"
     stroke=""
     id="circle154"
     style="fill:#ffeb3b" />
  <circle
     r="20"
     style="opacity:0;fill:#000000"
     cx="204.74226"
     cy="231.94168"
     id="circle156" />
  <circle
     r="3"
     cx="246.40892"
     cy="231.94168"
     id="circle158"
     style="fill:#e5e5e5" />
  <circle
     r="20"
     style="opacity:0;fill:#000000"
     cx="246.40892"
     cy="231.94168"
     id="circle160" />
  <circle
     r="3"
     cx="288.07562"
     cy="231.94168"
     id="circle162"
     style="fill:#e5e5e5" />
  <circle
     r="20"
     style="opacity:0;fill:#000000"
     cx="288.07562"
     cy="231.94168"
     id="circle164" />
  <circle
     r="3"
     cx="329.74228"
     cy="231.94168"
     id="circle166"
     style="fill:#e5e5e5" />
  <circle
     r="20"
     style="opacity:0;fill:#000000"
     cx="329.74228"
     cy="231.94168"
     id="circle168" />
  <circle
     r="3"
     cx="371.40897"
     cy="231.94168"
     id="circle170"
     style="fill:#e5e5e5" />
  <circle
     r="20"
     style="opacity:0;fill:#000000"
     cx="371.40897"
     cy="231.94168"
     id="circle172" />
  <circle
     r="3"
     cx="413.07562"
     cy="231.94168"
     id="circle174"
     style="fill:#e5e5e5" />
  <circle
     r="20"
     style="opacity:0;fill:#000000"
     cx="413.07562"
     cy="231.94168"
     id="circle176" />
  <circle
     r="3"
     cx="454.74231"
     cy="231.94168"
     id="circle178"
     style="fill:#e5e5e5" />
  <circle
     r="20"
     style="opacity:0;fill:#000000"
     cx="454.74231"
     cy="231.94168"
     id="circle180" />
  <circle
     r="12"
     cx="496.409"
     cy="231.94168"
     stroke=""
     id="circle182"
     style="fill:#ef5350" />
  <circle
     r="20"
     style="opacity:0;fill:#000000"
     cx="496.409"
     cy="231.94168"
     id="circle184" />
  <circle
     r="12"
     cx="538.07562"
     cy="231.94168"
     stroke=""
     id="circle186"
     style="fill:#ef5350" />
  <circle
     r="20"
     style="opacity:0;fill:#000000"
     cx="538.07562"
     cy="231.94168"
     id="circle188" />
  <circle
     r="12"
     cx="579.74225"
     cy="231.94168"
     stroke=""
     id="circle190"
     style="fill:#ef5350" />
  <circle
     r="20"
     style="opacity:0;fill:#000000"
     cx="579.74225"
     cy="231.94168"
     id="circle192" />
  <circle
     r="12"
     cx="142.24226"
     cy="268.02606"
     stroke=""
     id="circle194"
     style="fill:#ffeb3b" />
  <circle
     r="20"
     style="opacity:0;fill:#000000"
     cx="142.24226"
     cy="268.02606"
     id="circle196" />
  <circle
     r="12"
     cx="183.90895"
     cy="268.02606"
     stroke=""
     id="circle198"
     style="fill:#ffeb3b" />
  <circle
     r="20"
     style="opacity:0;fill:#000000"
     cx="183.90895"
     cy="268.02606"
     id="circle200" />
  <circle
     r="3"
     cx="225.57561"
     cy="268.02606"
     id="circle202"
     style="fill:#e5e5e5" />
  <circle
     r="20"
     style="opacity:0;fill:#000000"
     cx="225.57561"
     cy="268.02606"
     id="circle204" />
  <circle
     r="3"
     cx="267.24228"
     cy="268.02606"
     id="circle206"
     style="fill:#e5e5e5" />
  <circle
     r="20"
     style="opacity:0;fill:#000000"
     cx="267.24228"
     cy="268.02606"
     id="circle208" />
  <circle
     r="3"
     cx="308.90894"
     cy="268.02606"
     id="circle210"
     style="fill:#e5e5e5" />
  <circle
     r="20"
     style="opacity:0;fill:#000000"
     cx="308.90894"
     cy="268.02606"
     id="circle212" />
  <circle
     r="3"
     cx="350.57562"
     cy="268.02606"
     id="circle214"
     style="fill:#e5e5e5" />
  <circle
     r="20"
     style="opacity:0;fill:#000000"
     cx="350.57562"
     cy="268.02606"
     id="circle216" />
  <circle
     r="3"
     cx="392.24231"
     cy="268.02606"
     id="circle218"
     style="fill:#e5e5e5" />
  <circle
     r="20"
     style="opacity:0;fill:#000000"
     cx="392.24231"
     cy="268.02606"
     id="circle220" />
  <circle
     r="3"
     cx="433.909"
     cy="268.02606"
     id="circle222"
     style="fill:#e5e5e5" />
  <circle
     r="20"
     style="opacity:0;fill:#000000"
     cx="433.909"
     cy="268.02606"
     id="circle224" />
  <circle
     r="3"
     cx="475.57562"
     cy="268.02606"
     id="circle226"
     style="fill:#e5e5e5" />
  <circle
     r="20"
     style="opacity:0;fill:#000000"
     cx="475.57562"
     cy="268.02606"
     id="circle228" />
  <circle
     r="12"
     cx="517.24231"
     cy="268.02606"
     stroke=""
     id="circle230"
     style="fill:#ef5350" />
  <circle
     r="20"
     style="opacity:0;fill:#000000"
     cx="517.24231"
     cy="268.02606"
     id="circle232" />
  <circle
     r="12"
     cx="558.90894"
     cy="268.02606"
     stroke=""
     id="circle234"
     style="fill:#ef5350" />
  <circle
     r="20"
     style="opacity:0;fill:#000000"
     cx="558.90894"
     cy="268.02606"
     id="circle236" />
  <circle
     r="12"
     cx="163.07561"
     cy="304.11044"
     stroke=""
     id="circle238"
     style="fill:#ffeb3b" />
  <circle
     r="20"
     style="opacity:0;fill:#000000"
     cx="163.07561"
     cy="304.11044"
     id="circle240" />
  <circle
     r="3"
     cx="204.74226"
     cy="304.11044"
     id="circle242"
     style="fill:#e5e5e5" />
  <circle
     r="20"
     style="opacity:0;fill:#000000"
     cx="204.74226"
     cy="304.11044"
     id="circle244" />
  <circle
     r="3"
     cx="246.40892"
     cy="304.11044"
     id="circle246"
     style="fill:#e5e5e5" />
  <circle
     r="20"
     style="opacity:0;fill:#000000"
     cx="246.40892"
     cy="304.11044"
     id="circle248" />
  <circle
     r="3"
     cx="288.07562"
     cy="304.11044"
     id="circle250"
     style="fill:#e5e5e5" />
  <circle
     r="20"
     style="opacity:0;fill:#000000"
     cx="288.07562"
     cy="304.11044"
     id="circle252" />
  <circle
     r="3"
     cx="329.74228"
     cy="304.11044"
     id="circle254"
     style="fill:#e5e5e5" />
  <circle
     r="20"
     style="opacity:0;fill:#000000"
     cx="329.74228"
     cy="304.11044"
     id="circle256" />
  <circle
     r="3"
     cx="371.40897"
     cy="304.11044"
     id="circle258"
     style="fill:#e5e5e5" />
  <circle
     r="20"
     style="opacity:0;fill:#000000"
     cx="371.40897"
     cy="304.11044"
     id="circle260" />
  <circle
     r="3"
     cx="413.07562"
     cy="304.11044"
     id="circle262"
     style="fill:#e5e5e5" />
  <circle
     r="20"
     style="opacity:0;fill:#000000"
     cx="413.07562"
     cy="304.11044"
     id="circle264" />
  <circle
     r="3"
     cx="454.74231"
     cy="304.11044"
     id="circle266"
     style="fill:#e5e5e5" />
  <circle
     r="20"
     style="opacity:0;fill:#000000"
     cx="454.74231"
     cy="304.11044"
     id="circle268" />
  <circle
     r="3"
     cx="496.409"
     cy="304.11044"
     id="circle270"
     style="fill:#e5e5e5" />
  <circle
     r="20"
     style="opacity:0;fill:#000000"
     cx="496.409"
     cy="304.11044"
     id="circle272" />
  <circle
     r="12"
     cx="538.07562"
     cy="304.11044"
     stroke=""
     id="circle274"
     style="fill:#ef5350" />
  <circle
     r="20"
     style="opacity:0;fill:#000000"
     cx="538.07562"
     cy="304.11044"
     id="circle276" />
  <circle
     r="3"
     cx="183.90895"
     cy="340.19485"
     id="circle278"
     style="fill:#e5e5e5" />
  <circle
     r="20"
     style="opacity:0;fill:#000000"
     cx="183.90895"
     cy="340.19485"
     id="circle280" />
  <circle
     r="3"
     cx="225.57561"
     cy="340.19485"
     id="circle282"
     style="fill:#e5e5e5" />
  <circle
     r="20"
     style="opacity:0;fill:#000000"
     cx="225.57561"
     cy="340.19485"
     id="circle284" />
  <circle
     r="3"
     cx="267.24228"
     cy="340.19485"
     id="circle286"
     style="fill:#e5e5e5" />
  <circle
     r="20"
     style="opacity:0;fill:#000000"
     cx="267.24228"
     cy="340.19485"
     id="circle288" />
  <circle
     r="3"
     cx="308.90894"
     cy="340.19485"
     id="circle290"
     style="fill:#e5e5e5" />
  <circle
     r="20"
     style="opacity:0;fill:#000000"
     cx="308.90894"
     cy="340.19485"
     id="circle292" />
  <circle
     r="3"
     cx="350.57562"
     cy="340.19485"
     id="circle294"
     style="fill:#e5e5e5" />
  <circle
     r="20"
     style="opacity:0;fill:#000000"
     cx="350.57562"
     cy="340.19485"
     id="circle296" />
  <circle
     r="3"
     cx="392.24231"
     cy="340.19485"
     id="circle298"
     style="fill:#e5e5e5" />
  <circle
     r="20"
     style="opacity:0;fill:#000000"
     cx="392.24231"
     cy="340.19485"
     id="circle300" />
  <circle
     r="3"
     cx="433.909"
     cy="340.19485"
     id="circle302"
     style="fill:#e5e5e5" />
  <circle
     r="20"
     style="opacity:0;fill:#000000"
     cx="433.909"
     cy="340.19485"
     id="circle304" />
  <circle
     r="3"
     cx="475.57562"
     cy="340.19485"
     id="circle306"
     style="fill:#e5e5e5" />
  <circle
     r="20"
     style="opacity:0;fill:#000000"
     cx="475.57562"
     cy="340.19485"
     id="circle308" />
  <circle
     r="3"
     cx="517.24231"
     cy="340.19485"
     id="circle310"
     style="fill:#e5e5e5" />
  <circle
     r="20"
     style="opacity:0;fill:#000000"
     cx="517.24231"
     cy="340.19485"
     id="circle312" />
  <circle
     r="12"
     cx="163.07561"
     cy="376.27924"
     stroke=""
     id="circle314"
     style="fill:#8bc34a" />
  <circle
     r="20"
     style="opacity:0;fill:#000000"
     cx="163.07561"
     cy="376.27924"
     id="circle316" />
  <circle
     r="3"
     cx="204.74226"
     cy="376.27924"
     id="circle318"
     style="fill:#e5e5e5" />
  <circle
     r="20"
     style="opacity:0;fill:#000000"
     cx="204.74226"
     cy="376.27924"
     id="circle320" />
  <circle
     r="3"
     cx="246.40892"
     cy="376.27924"
     id="circle322"
     style="fill:#e5e5e5" />
  <circle
     r="20"
     style="opacity:0;fill:#000000"
     cx="246.40892"
     cy="376.27924"
     id="circle324" />
  <circle
     r="3"
     cx="288.07562"
     cy="376.27924"
     id="circle326"
     style="fill:#e5e5e5" />
  <circle
     r="20"
     style="opacity:0;fill:#000000"
     cx="288.07562"
     cy="376.27924"
     id="circle328" />
  <circle
     r="3"
     cx="329.74228"
     cy="376.27924"
     id="circle330"
     style="fill:#e5e5e5" />
  <circle
     r="20"
     style="opacity:0;fill:#000000"
     cx="329.74228"
     cy="376.27924"
     id="circle332" />
  <circle
     r="3"
     cx="371.40897"
     cy="376.27924"
     id="circle334"
     style="fill:#e5e5e5" />
  <circle
     r="20"
     style="opacity:0;fill:#000000"
     cx="371.40897"
     cy="376.27924"
     id="circle336" />
  <circle
     r="3"
     cx="413.07562"
     cy="376.27924"
     id="circle338"
     style="fill:#e5e5e5" />
  <circle
     r="20"
     style="opacity:0;fill:#000000"
     cx="413.07562"
     cy="376.27924"
     id="circle340" />
  <circle
     r="3"
     cx="454.74231"
     cy="376.27924"
     id="circle342"
     style="fill:#e5e5e5" />
  <circle
     r="20"
     style="opacity:0;fill:#000000"
     cx="454.74231"
     cy="376.27924"
     id="circle344" />
  <circle
     r="3"
     cx="496.409"
     cy="376.27924"
     id="circle346"
     style="fill:#e5e5e5" />
  <circle
     r="20"
     style="opacity:0;fill:#000000"
     cx="496.409"
     cy="376.27924"
     id="circle348" />
  <circle
     r="12"
     cx="538.07562"
     cy="376.27924"
     stroke=""
     id="circle350"
     style="fill:#9c27b0" />
  <circle
     r="20"
     style="opacity:0;fill:#000000"
     cx="538.07562"
     cy="376.27924"
     id="circle352" />
  <circle
     r="12"
     cx="142.24226"
     cy="412.36365"
     stroke=""
     id="circle354"
     style="fill:#8bc34a" />
  <circle
     r="20"
     style="opacity:0;fill:#000000"
     cx="142.24226"
     cy="412.36365"
     id="circle356" />
  <circle
     r="12"
     cx="183.90895"
     cy="412.36365"
     stroke=""
     id="circle358"
     style="fill:#8bc34a" />
  <circle
     r="20"
     style="opacity:0;fill:#000000"
     cx="183.90895"
     cy="412.36365"
     id="circle360" />
  <circle
     r="3"
     cx="225.57561"
     cy="412.36365"
     id="circle362"
     style="fill:#e5e5e5" />
  <circle
     r="20"
     style="opacity:0;fill:#000000"
     cx="225.57561"
     cy="412.36365"
     id="circle364" />
  <circle
     r="3"
     cx="267.24228"
     cy="412.36365"
     id="circle366"
     style="fill:#e5e5e5" />
  <circle
     r="20"
     style="opacity:0;fill:#000000"
     cx="267.24228"
     cy="412.36365"
     id="circle368" />
  <circle
     r="3"
     cx="308.90894"
     cy="412.36365"
     id="circle370"
     style="fill:#e5e5e5" />
  <circle
     r="20"
     style="opacity:0;fill:#000000"
     cx="308.90894"
     cy="412.36365"
     id="circle372" />
  <circle
     r="3"
     cx="350.57562"
     cy="412.36365"
     id="circle374"
     style="fill:#e5e5e5" />
  <circle
     r="20"
     style="opacity:0;fill:#000000"
     cx="350.57562"
     cy="412.36365"
     id="circle376" />
  <circle
     r="3"
     cx="392.24231"
     cy="412.36365"
     id="circle378"
     style="fill:#e5e5e5" />
  <circle
     r="20"
     style="opacity:0;fill:#000000"
     cx="392.24231"
     cy="412.36365"
     id="circle380" />
  <circle
     r="3"
     cx="433.909"
     cy="412.36365"
     id="circle382"
     style="fill:#e5e5e5" />
  <circle
     r="20"
     style="opacity:0;fill:#000000"
     cx="433.909"
     cy="412.36365"
     id="circle384" />
  <circle
     r="3"
     cx="475.57562"
     cy="412.36365"
     id="circle386"
     style="fill:#e5e5e5" />
  <circle
     r="20"
     style="opacity:0;fill:#000000"
     cx="475.57562"
     cy="412.36365"
     id="circle388" />
  <circle
     r="12"
     cx="517.24231"
     cy="412.36365"
     stroke=""
     id="circle390"
     style="fill:#9c27b0" />
  <circle
     r="20"
     style="opacity:0;fill:#000000"
     cx="517.24231"
     cy="412.36365"
     id="circle392" />
  <circle
     r="12"
     cx="558.90894"
     cy="412.36365"
     stroke=""
     id="circle394"
     style="fill:#9c27b0" />
  <circle
     r="20"
     style="opacity:0;fill:#000000"
     cx="558.90894"
     cy="412.36365"
     id="circle396" />
  <circle
     r="12"
     cx="121.40896"
     cy="448.44803"
     stroke=""
     id="circle398"
     style="fill:#8bc34a" />
  <circle
     r="20"
     style="opacity:0;fill:#000000"
     cx="121.40896"
     cy="448.44803"
     id="circle400" />
  <circle
     r="12"
     cx="163.07561"
     cy="448.44803"
     stroke=""
     id="circle402"
     style="fill:#8bc34a" />
  <circle
     r="20"
     style="opacity:0;fill:#000000"
     cx="163.07561"
     cy="448.44803"
     id="circle404" />
  <circle
     r="12"
     cx="204.74226"
     cy="448.44803"
     stroke=""
     id="circle406"
     style="fill:#8bc34a" />
  <circle
     r="20"
     style="opacity:0;fill:#000000"
     cx="204.74226"
     cy="448.44803"
     id="circle408" />
  <circle
     r="3"
     cx="246.40892"
     cy="448.44803"
     id="circle410"
     style="fill:#e5e5e5" />
  <circle
     r="20"
     style="opacity:0;fill:#000000"
     cx="246.40892"
     cy="448.44803"
     id="circle412" />
  <circle
     r="3"
     cx="288.07562"
     cy="448.44803"
     id="circle414"
     style="fill:#e5e5e5" />
  <circle
     r="20"
     style="opacity:0;fill:#000000"
     cx="288.07562"
     cy="448.44803"
     id="circle416" />
  <circle
     r="3"
     cx="329.74228"
     cy="448.44803"
     id="circle418"
     style="fill:#e5e5e5" />
  <circle
     r="20"
     style="opacity:0;fill:#000000"
     cx="329.74228"
     cy="448.44803"
     id="circle420" />
  <circle
     r="3"
     cx="371.40897"
     cy="448.44803"
     id="circle422"
     style="fill:#e5e5e5" />
  <circle
     r="20"
     style="opacity:0;fill:#000000"
     cx="371.40897"
     cy="448.44803"
     id="circle424" />
  <circle
     r="3"
     cx="413.07562"
     cy="448.44803"
     id="circle426"
     style="fill:#e5e5e5" />
  <circle
     r="20"
     style="opacity:0;fill:#000000"
     cx="413.07562"
     cy="448.44803"
     id="circle428" />
  <circle
     r="3"
     cx="454.74231"
     cy="448.44803"
     id="circle430"
     style="fill:#e5e5e5" />
  <circle
     r="20"
     style="opacity:0;fill:#000000"
     cx="454.74231"
     cy="448.44803"
     id="circle432" />
  <circle
     r="12"
     cx="496.409"
     cy="448.44803"
     stroke=""
     id="circle434"
     style="fill:#9c27b0" />
  <circle
     r="20"
     style="opacity:0;fill:#000000"
     cx="496.409"
     cy="448.44803"
     id="circle436" />
  <circle
     r="12"
     cx="538.07562"
     cy="448.44803"
     stroke=""
     id="circle438"
     style="fill:#9c27b0" />
  <circle
     r="20"
     style="opacity:0;fill:#000000"
     cx="538.07562"
     cy="448.44803"
     id="circle440" />
  <circle
     r="12"
     cx="579.74225"
     cy="448.44803"
     stroke=""
     id="circle442"
     style="fill:#9c27b0" />
  <circle
     r="20"
     style="opacity:0;fill:#000000"
     cx="579.74225"
     cy="448.44803"
     id="circle444" />
  <circle
     r="12"
     cx="100.57561"
     cy="484.53238"
     stroke=""
     id="circle446"
     style="fill:#8bc34a" />
  <circle
     r="20"
     style="opacity:0;fill:#000000"
     cx="100.57561"
     cy="484.53238"
     id="circle448" />
  <circle
     r="12"
     cx="142.24226"
     cy="484.53238"
     stroke=""
     id="circle450"
     style="fill:#8bc34a" />
  <circle
     r="20"
     style="opacity:0;fill:#000000"
     cx="142.24226"
     cy="484.53238"
     id="circle452" />
  <circle
     r="12"
     cx="183.90895"
     cy="484.53238"
     stroke=""
     id="circle454"
     style="fill:#8bc34a" />
  <circle
     r="20"
     style="opacity:0;fill:#000000"
     cx="183.90895"
     cy="484.53238"
     id="circle456" />
  <circle
     r="12"
     cx="225.57561"
     cy="484.53238"
     stroke=""
     id="circle458"
     style="fill:#8bc34a" />
  <circle
     r="20"
     style="opacity:0;fill:#000000"
     cx="225.57561"
     cy="484.53238"
     id="circle460" />
  <circle
     r="3"
     cx="267.24228"
     cy="484.53238"
     id="circle462"
     style="fill:#e5e5e5" />
  <circle
     r="20"
     style="opacity:0;fill:#000000"
     cx="267.24228"
     cy="484.53238"
     id="circle464" />
  <circle
     r="3"
     cx="308.90894"
     cy="484.53238"
     id="circle466"
     style="fill:#e5e5e5" />
  <circle
     r="20"
     style="opacity:0;fill:#000000"
     cx="308.90894"
     cy="484.53238"
     id="circle468" />
  <circle
     r="3"
     cx="350.57562"
     cy="484.53238"
     id="circle470"
     style="fill:#e5e5e5" />
  <circle
     r="20"
     style="opacity:0;fill:#000000"
     cx="350.57562"
     cy="484.53238"
     id="circle472" />
  <circle
     r="3"
     cx="392.24231"
     cy="484.53238"
     id="circle474"
     style="fill:#e5e5e5" />
  <circle
     r="20"
     style="opacity:0;fill:#000000"
     cx="392.24231"
     cy="484.53238"
     id="circle476" />
  <circle
     r="3"
     cx="433.909"
     cy="484.53238"
     id="circle478"
     style="fill:#e5e5e5" />
  <circle
     r="20"
     style="opacity:0;fill:#000000"
     cx="433.909"
     cy="484.53238"
     id="circle480" />
  <circle
     r="12"
     cx="475.57562"
     cy="484.53238"
     stroke=""
     id="circle482"
     style="fill:#9c27b0" />
  <circle
     r="20"
     style="opacity:0;fill:#000000"
     cx="475.57562"
     cy="484.53238"
     id="circle484" />
  <circle
     r="12"
     cx="517.24231"
     cy="484.53238"
     stroke=""
     id="circle486"
     style="fill:#9c27b0" />
  <circle
     r="20"
     style="opacity:0;fill:#000000"
     cx="517.24231"
     cy="484.53238"
     id="circle488" />
  <circle
     r="12"
     cx="558.90894"
     cy="484.53238"
     stroke=""
     id="circle490"
     style="fill:#9c27b0" />
  <circle
     r="20"
     style="opacity:0;fill:#000000"
     cx="558.90894"
     cy="484.53238"
     id="circle492" />
  <circle
     r="12"
     cx="600.57562"
     cy="484.53238"
     stroke=""
     id="circle494"
     style="fill:#9c27b0" />
  <circle
     r="20"
     style="opacity:0;fill:#000000"
     cx="600.57562"
     cy="484.53238"
     id="circle496" />
  <circle
     r="12"
     cx="288.07562"
     cy="520.61676"
     stroke=""
     id="circle498"
     style="fill:#ff9800" />
  <circle
     r="20"
     style="opacity:0;fill:#000000"
     cx="288.07562"
     cy="520.61676"
     id="circle500" />
  <circle
     r="12"
     cx="329.74228"
     cy="520.61676"
     stroke=""
     id="circle502"
     style="fill:#ff9800" />
  <circle
     r="20"
     style="opacity:0;fill:#000000"
     cx="329.74228"
     cy="520.61676"
     id="circle504" />
  <circle
     r="12"
     cx="371.40897"
     cy="520.61676"
     stroke=""
     id="circle506"
     style="fill:#ff9800" />
  <circle
     r="20"
     style="opacity:0;fill:#000000"
     cx="371.40897"
     cy="520.61676"
     id="circle508" />
  <circle
     r="12"
     cx="413.07562"
     cy="520.61676"
     stroke=""
     id="circle510"
     style="fill:#ff9800" />
  <circle
     r="20"
     style="opacity:0;fill:#000000"
     cx="413.07562"
     cy="520.61676"
     id="circle512" />
  <circle
     r="12"
     cx="308.90894"
     cy="556.70117"
     stroke=""
     id="circle514"
     style="fill:#ff9800" />
  <circle
     r="20"
     style="opacity:0;fill:#000000"
     cx="308.90894"
     cy="556.70117"
     id="circle516" />
  <circle
     r="12"
     cx="350.57562"
     cy="556.70117"
     stroke=""
     id="circle518"
     style="fill:#ff9800" />
  <circle
     r="20"
     style="opacity:0;fill:#000000"
     cx="350.57562"
     cy="556.70117"
     id="circle520" />
  <circle
     r="12"
     cx="392.24231"
     cy="556.70117"
     stroke=""
     id="circle522"
     style="fill:#ff9800" />
  <circle
     r="20"
     style="opacity:0;fill:#000000"
     cx="392.24231"
     cy="556.70117"
     id="circle524" />
  <circle
     r="12"
     cx="329.74228"
     cy="592.78558"
     stroke=""
     id="circle526"
     style="fill:#ff9800" />
  <circle
     r="20"
     style="opacity:0;fill:#000000"
     cx="329.74228"
     cy="592.78558"
     id="circle528" />
  <circle
     r="12"
     cx="371.40897"
     cy="592.78558"
     stroke=""
     id="circle530"
     style="fill:#ff9800" />
  <circle
     r="20"
     style="opacity:0;fill:#000000"
     cx="371.40897"
     cy="592.78558"
     id="circle532" />
  <circle
     r="12"
     cx="350.57562"
     cy="628.87"
     stroke=""
     id="circle534"
     style="fill:#ff9800" />
  <circle
     r="20"
     style="opacity:0;fill:#000000"
     cx="350.57562"
     cy="628.87"
     id="circle536" />
</svg>
